<svg width="24.000000" height="24.000000" viewBox="0 0 24 24" fill="none" xmlns="http://www.w3.org/2000/svg">

    <!-- Social-->

    <g id="githubSVG">
        <path d="M12 2C10.68 2 9.38 2.25 8.17 2.76C6.95 3.26 5.85 4 4.92 4.92C3.05 6.8 2 9.34 2 12C2 16.42 4.87 20.17 8.83 21.5C9.33 21.58 9.5 21.27 9.5 21L9.5 19.31C6.73 19.91 6.13 17.96 6.13 17.96C5.67 16.81 5.03 16.5 5.03 16.5C4.12 15.88 5.09 15.9 5.09 15.9C6.09 15.97 6.62 16.93 6.62 16.93C7.5 18.45 8.96 18 9.54 17.76C9.62 17.11 9.88 16.67 10.16 16.42C7.95 16.17 5.62 15.31 5.62 11.5C5.62 10.39 6 9.5 6.65 8.78C6.54 8.53 6.2 7.5 6.75 6.15C6.75 6.15 7.58 5.88 9.5 7.16C10.29 6.95 11.15 6.84 12 6.84C12.84 6.84 13.71 6.95 14.5 7.16C16.41 5.88 17.25 6.15 17.25 6.15C17.79 7.5 17.45 8.53 17.34 8.78C18 9.5 18.37 10.39 18.37 11.5C18.37 15.32 16.04 16.16 13.8 16.41C14.16 16.71 14.5 17.33 14.5 18.26L14.5 21C14.5 21.27 14.66 21.59 15.16 21.5C19.13 20.16 22 16.42 22 12C22 10.68 21.74 9.38 21.23 8.17C20.73 6.95 20 5.85 19.07 4.92C18.14 4 17.04 3.26 15.82 2.76C14.61 2.25 13.31 2 12 2Z"
              fill="#B292FF" fill-opacity="1.000000" fill-rule="nonzero"/>
    </g>

    <g id="linkendingSvg">
        <defs>
            <clipPath id="clip570_469">
                <rect width="24.000000" height="24.000000" fill="white" fill-opacity="0"/>
            </clipPath>
        </defs>
        <rect width="24.000000" height="24.000000" fill="#FFFFFF" fill-opacity="0"/>
        <g clip-path="url(#clip570_469)">
            <path d="M19 3C19.53 3 20.03 3.21 20.41 3.58C20.78 3.96 21 4.46 21 5L21 19C21 19.53 20.78 20.03 20.41 20.41C20.03 20.78 19.53 21 19 21L5 21C4.46 21 3.96 20.78 3.58 20.41C3.21 20.03 3 19.53 3 19L3 5C3 4.46 3.21 3.96 3.58 3.58C3.96 3.21 4.46 3 5 3L19 3ZM18.5 18.5L18.5 13.2C18.5 12.33 18.15 11.5 17.54 10.89C16.93 10.28 16.1 9.93 15.24 9.93C14.38 9.93 13.4 10.46 12.91 11.24L12.91 10.13L10.12 10.13L10.12 18.5L12.91 18.5L12.91 13.57C12.91 12.8 13.54 12.17 14.3 12.17C14.68 12.17 15.03 12.31 15.29 12.58C15.56 12.84 15.71 13.19 15.71 13.57L15.71 18.5L18.5 18.5ZM6.87 8.56C7.32 8.56 7.75 8.38 8.06 8.06C8.38 7.75 8.55 7.32 8.55 6.88C8.55 5.95 7.8 5.19 6.87 5.19C6.43 5.19 6 5.36 5.68 5.68C5.36 6 5.19 6.43 5.19 6.88C5.19 7.81 5.95 8.56 6.87 8.56ZM8.26 18.5L8.26 10.13L5.5 10.13L5.5 18.5L8.26 18.5Z"
                  fill="#B292FF" fill-opacity="1.000000" fill-rule="nonzero"/>
        </g>
    </g>

    <g id="figmaSvg">
        <defs>
            <clipPath id="clip571_91">
                <rect width="10.000000" height="15.000000" fill="white" fill-opacity="0"/>
            </clipPath>
        </defs>
        <rect width="10.000000" height="15.000000" fill="#FFFFFF" fill-opacity="0"/>
        <g clip-path="url(#clip571_91)">
            <path d="M2.5 15C3.87 15 5 13.87 5 12.5L5 10L2.5 10C1.12 10 0 11.12 0 12.5C0 13.87 1.12 15 2.5 15Z"
                  fill="#0ACF83" fill-opacity="1.000000" fill-rule="nonzero"/>
            <path d="M0 7.5C0 6.12 1.12 5 2.5 5L5 5L5 10L2.5 10C1.12 10 0 8.87 0 7.5Z" fill="#A259FF"
                  fill-opacity="1.000000" fill-rule="nonzero"/>
            <path d="M0 2.5C0 1.12 1.12 0 2.5 0L5 0L5 5L2.5 5C1.12 5 0 3.87 0 2.5Z" fill="#F24E1E"
                  fill-opacity="1.000000" fill-rule="nonzero"/>
            <path d="M5 0L7.5 0C8.87 0 10 1.12 10 2.5C10 3.87 8.87 5 7.5 5L5 5L5 0Z" fill="#FF7262"
                  fill-opacity="1.000000" fill-rule="nonzero"/>
            <path d="M10 7.5C10 8.87 8.87 10 7.5 10C6.12 10 5 8.87 5 7.5C5 6.12 6.12 5 7.5 5C8.87 5 10 6.12 10 7.5Z"
                  fill="#1ABCFE" fill-opacity="1.000000" fill-rule="nonzero"/>
        </g>
    </g>

    <g id="mailSvg">
        <defs>
            <clipPath id="clip570_471">
                <rect width="24.000000" height="24.000000" fill="white" fill-opacity="0"/>
            </clipPath>
        </defs>
        <rect width="24.000000" height="24.000000" fill="#FFFFFF" fill-opacity="0"/>
        <g clip-path="url(#clip570_471)">
            <path d="M4 20C3.45 20 2.97 19.8 2.58 19.41C2.19 19.02 2 18.54 2 18L2 6C2 5.45 2.19 4.97 2.58 4.58C2.97 4.19 3.45 4 4 4L20 4C20.54 4 21.02 4.19 21.41 4.58C21.8 4.97 22 5.45 22 6L22 18C22 18.54 21.8 19.02 21.41 19.41C21.02 19.8 20.54 20 20 20L4 20ZM12 12.82C12.08 12.82 12.17 12.81 12.26 12.78C12.35 12.76 12.44 12.72 12.52 12.67L19.59 8.25C19.73 8.16 19.83 8.06 19.9 7.93C19.96 7.81 20 7.67 20 7.52C20 7.19 19.85 6.94 19.57 6.77C19.29 6.6 19 6.61 18.7 6.79L12 11L5.29 6.79C5 6.61 4.7 6.61 4.42 6.78C4.14 6.96 4 7.2 4 7.52C4 7.69 4.03 7.83 4.09 7.96C4.16 8.08 4.26 8.18 4.4 8.25L11.47 12.67C11.55 12.72 11.64 12.76 11.73 12.78C11.82 12.81 11.91 12.82 12 12.82Z"
                  fill="#B292FF" fill-opacity="1.000000" fill-rule="nonzero"/>
        </g>
    </g>

    <!-- Technologists-->

    <g id="appSvg">
        <defs>
            <clipPath id="clip571_332">
                <rect width="20.000000" height="20.000000" fill="white" fill-opacity="0"/>
            </clipPath>
        </defs>
        <rect width="20.000000" height="20.000000" fill="#FFFFFF" fill-opacity="0"/>
        <g clip-path="url(#clip571_332)">
            <path d="M9.99 4.72L10.35 4.1C10.57 3.72 11.05 3.59 11.44 3.81C11.82 4.03 11.95 4.52 11.73 4.9L8.31 10.82L10.78 10.82C11.58 10.82 12.03 11.76 11.69 12.41L4.44 12.41C4 12.41 3.64 12.06 3.64 11.62C3.64 11.17 4 10.82 4.44 10.82L6.47 10.82L9.07 6.31L8.26 4.9C8.04 4.52 8.17 4.03 8.55 3.81C8.94 3.59 9.42 3.72 9.64 4.1L9.99 4.72ZM6.92 13.23L6.15 14.56C5.93 14.94 5.44 15.07 5.06 14.85C4.68 14.64 4.55 14.15 4.77 13.76L5.34 12.78C5.98 12.58 6.5 12.73 6.92 13.23ZM13.51 10.82L15.59 10.82C16.03 10.82 16.39 11.18 16.39 11.62C16.39 12.06 16.03 12.42 15.59 12.42L14.44 12.42L15.21 13.76C15.43 14.15 15.3 14.63 14.92 14.85C14.54 15.07 14.05 14.94 13.83 14.56C12.52 12.29 11.54 10.59 10.89 9.46C10.22 8.31 10.69 7.15 11.17 6.76C11.69 7.66 12.47 9.01 13.51 10.82ZM10 0.31C4.64 0.31 0.31 4.64 0.31 10C0.31 15.35 4.64 19.68 10 19.68C15.35 19.68 19.68 15.35 19.68 10C19.68 4.64 15.35 0.31 10 0.31ZM18.43 10C18.43 14.63 14.68 18.43 10 18.43C5.36 18.43 1.56 14.68 1.56 10C1.56 5.36 5.31 1.56 10 1.56C14.63 1.56 18.43 5.31 18.43 10Z"
                  fill="#FFFFFF" fill-opacity="1.000000" fill-rule="nonzero"/>
        </g>
    </g>

    <g id="googleAppSvg">
        <path d="M0 1.04L0 15.95C0 15.98 0 16.02 0.02 16.04C0.04 16.07 0.07 16.09 0.1 16.1C0.13 16.11 0.16 16.12 0.19 16.11C0.22 16.11 0.25 16.09 0.27 16.07L8.04 8.5L0.27 0.92C0.25 0.9 0.22 0.88 0.19 0.88C0.16 0.87 0.13 0.87 0.1 0.89C0.07 0.9 0.04 0.92 0.02 0.95C0 0.97 0 1.01 0 1.04ZM11.3 5.38L1.56 0.02L1.55 0.02C1.39 -0.08 1.23 0.15 1.36 0.28L9 7.58L11.3 5.38ZM1.36 16.71C1.23 16.84 1.39 17.07 1.55 16.97L1.56 16.97L11.3 11.61L9 9.41L1.36 16.71ZM15.23 7.55L12.51 6.05L9.95 8.5L12.51 10.94L15.23 9.44C15.97 9.04 15.97 7.96 15.23 7.55Z"
              fill="#FFFFFF" fill-opacity="1.000000" fill-rule="nonzero"/>
    </g>

    <g id="reactSvg">
        <defs>
            <clipPath id="clip571_65">
                <rect width="19.428572" height="20.000000" fill="white" fill-opacity="0"/>
            </clipPath>
        </defs>
        <rect width="19.428572" height="20.000000" fill="#FFFFFF" fill-opacity="0"/>
        <g clip-path="url(#clip571_65)">
            <path d="M9.71 8.42C10.54 8.42 11.22 9.12 11.22 10C11.22 10.83 10.54 11.54 9.71 11.54C8.87 11.54 8.2 10.83 8.2 10C8.2 9.12 8.87 8.42 9.71 8.42ZM5.96 16.66C6.47 16.98 7.59 16.5 8.87 15.25C8.45 14.75 8.04 14.22 7.65 13.66C7 13.6 6.35 13.5 5.71 13.36C5.3 15.15 5.45 16.37 5.96 16.66ZM6.54 11.88L6.3 11.45C6.21 11.7 6.12 11.94 6.07 12.17C6.29 12.22 6.53 12.26 6.78 12.3L6.54 11.88ZM11.83 11.25L12.49 10L11.83 8.75C11.59 8.3 11.33 7.91 11.09 7.52C10.66 7.5 10.2 7.5 9.71 7.5C9.22 7.5 8.76 7.5 8.33 7.52C8.09 7.91 7.83 8.3 7.59 8.75L6.93 10L7.59 11.25C7.83 11.69 8.09 12.08 8.33 12.47C8.76 12.5 9.22 12.5 9.71 12.5C10.2 12.5 10.66 12.5 11.09 12.47C11.33 12.08 11.59 11.69 11.83 11.25ZM9.71 5.65C9.56 5.83 9.39 6.02 9.23 6.25L10.19 6.25C10.03 6.02 9.86 5.83 9.71 5.65ZM9.71 14.35C9.86 14.16 10.03 13.97 10.19 13.75L9.23 13.75C9.39 13.97 9.56 14.16 9.71 14.35ZM13.45 3.33C12.95 3.01 11.83 3.5 10.54 4.75C10.96 5.24 11.38 5.77 11.77 6.33C12.43 6.4 13.08 6.5 13.71 6.63C14.12 4.85 13.97 3.62 13.45 3.33ZM12.88 8.11L13.12 8.54C13.21 8.3 13.29 8.05 13.35 7.82C13.13 7.77 12.89 7.73 12.64 7.69L12.88 8.11ZM14.06 2.24C15.25 2.94 15.38 4.78 14.87 6.93C16.93 7.55 18.41 8.59 18.41 10C18.41 11.4 16.93 12.44 14.87 13.06C15.38 15.21 15.25 17.05 14.06 17.75C12.87 18.45 11.26 17.65 9.71 16.13C8.16 17.65 6.54 18.45 5.35 17.75C4.17 17.05 4.04 15.21 4.54 13.06C2.49 12.44 1.01 11.4 1.01 10C1.01 8.59 2.49 7.55 4.54 6.93C4.04 4.78 4.17 2.94 5.35 2.24C6.54 1.54 8.16 2.34 9.71 3.86C11.26 2.34 12.87 1.54 14.06 2.24ZM13.82 10C14.1 10.62 14.34 11.25 14.54 11.88C16.24 11.35 17.2 10.6 17.2 10C17.2 9.39 16.24 8.64 14.54 8.11C14.34 8.75 14.1 9.37 13.82 10ZM5.6 10C5.32 9.37 5.08 8.75 4.88 8.11C3.18 8.64 2.22 9.39 2.22 10C2.22 10.6 3.18 11.35 4.88 11.88C5.08 11.25 5.32 10.62 5.6 10ZM12.88 11.88L12.64 12.3C12.89 12.26 13.13 12.22 13.35 12.17C13.29 11.94 13.21 11.7 13.12 11.45L12.88 11.88ZM10.54 15.25C11.83 16.5 12.95 16.98 13.45 16.66C13.97 16.37 14.12 15.15 13.71 13.36C13.08 13.5 12.43 13.6 11.77 13.66C11.38 14.22 10.96 14.75 10.54 15.25ZM6.54 8.11L6.78 7.69C6.53 7.73 6.29 7.77 6.07 7.82C6.12 8.05 6.21 8.3 6.3 8.54L6.54 8.11ZM8.87 4.75C7.59 3.5 6.47 3.01 5.96 3.33C5.45 3.62 5.3 4.85 5.71 6.63C6.35 6.49 7 6.39 7.65 6.33C8.04 5.77 8.45 5.24 8.87 4.75Z"
                  fill="#61DBFB" fill-opacity="1.000000" fill-rule="nonzero"/>
        </g>
    </g>

    <g id="reactNativeSvg">
        <defs>
            <clipPath id="clip571_71">
                <rect width="19.428572" height="20.000000" fill="white" fill-opacity="0"/>
            </clipPath>
        </defs>
        <rect width="19.428572" height="20.000000" fill="#FFFFFF" fill-opacity="0"/>
        <g clip-path="url(#clip571_71)">
            <path d="M9.71 8.42C10.54 8.42 11.22 9.12 11.22 10C11.22 10.83 10.54 11.54 9.71 11.54C8.87 11.54 8.2 10.83 8.2 10C8.2 9.12 8.87 8.42 9.71 8.42ZM5.96 16.66C6.47 16.98 7.59 16.5 8.87 15.25C8.45 14.75 8.04 14.22 7.65 13.66C7 13.6 6.35 13.5 5.71 13.36C5.3 15.15 5.45 16.37 5.96 16.66ZM6.54 11.88L6.3 11.45C6.21 11.7 6.12 11.94 6.07 12.17C6.29 12.22 6.53 12.26 6.78 12.3L6.54 11.88ZM11.83 11.25L12.49 10L11.83 8.75C11.59 8.3 11.33 7.91 11.09 7.52C10.66 7.5 10.2 7.5 9.71 7.5C9.22 7.5 8.76 7.5 8.33 7.52C8.09 7.91 7.83 8.3 7.59 8.75L6.93 10L7.59 11.25C7.83 11.69 8.09 12.08 8.33 12.47C8.76 12.5 9.22 12.5 9.71 12.5C10.2 12.5 10.66 12.5 11.09 12.47C11.33 12.08 11.59 11.69 11.83 11.25ZM9.71 5.65C9.56 5.83 9.39 6.02 9.23 6.25L10.19 6.25C10.03 6.02 9.86 5.83 9.71 5.65ZM9.71 14.35C9.86 14.16 10.03 13.97 10.19 13.75L9.23 13.75C9.39 13.97 9.56 14.16 9.71 14.35ZM13.45 3.33C12.95 3.01 11.83 3.5 10.54 4.75C10.96 5.24 11.38 5.77 11.77 6.33C12.43 6.4 13.08 6.5 13.71 6.63C14.12 4.85 13.97 3.62 13.45 3.33ZM12.88 8.11L13.12 8.54C13.21 8.3 13.29 8.05 13.35 7.82C13.13 7.77 12.89 7.73 12.64 7.69L12.88 8.11ZM14.06 2.24C15.25 2.94 15.38 4.78 14.87 6.93C16.93 7.55 18.41 8.59 18.41 10C18.41 11.4 16.93 12.44 14.87 13.06C15.38 15.21 15.25 17.05 14.06 17.75C12.87 18.45 11.26 17.65 9.71 16.13C8.16 17.65 6.54 18.45 5.35 17.75C4.17 17.05 4.04 15.21 4.54 13.06C2.49 12.44 1.01 11.4 1.01 10C1.01 8.59 2.49 7.55 4.54 6.93C4.04 4.78 4.17 2.94 5.35 2.24C6.54 1.54 8.16 2.34 9.71 3.86C11.26 2.34 12.87 1.54 14.06 2.24ZM13.82 10C14.1 10.62 14.34 11.25 14.54 11.88C16.24 11.35 17.2 10.6 17.2 10C17.2 9.39 16.24 8.64 14.54 8.11C14.34 8.75 14.1 9.37 13.82 10ZM5.6 10C5.32 9.37 5.08 8.75 4.88 8.11C3.18 8.64 2.22 9.39 2.22 10C2.22 10.6 3.18 11.35 4.88 11.88C5.08 11.25 5.32 10.62 5.6 10ZM12.88 11.88L12.64 12.3C12.89 12.26 13.13 12.22 13.35 12.17C13.29 11.94 13.21 11.7 13.12 11.45L12.88 11.88ZM10.54 15.25C11.83 16.5 12.95 16.98 13.45 16.66C13.97 16.37 14.12 15.15 13.71 13.36C13.08 13.5 12.43 13.6 11.77 13.66C11.38 14.22 10.96 14.75 10.54 15.25ZM6.54 8.11L6.78 7.69C6.53 7.73 6.29 7.77 6.07 7.82C6.12 8.05 6.21 8.3 6.3 8.54L6.54 8.11ZM8.87 4.75C7.59 3.5 6.47 3.01 5.96 3.33C5.45 3.62 5.3 4.85 5.71 6.63C6.35 6.49 7 6.39 7.65 6.33C8.04 5.77 8.45 5.24 8.87 4.75Z"
                  fill="#B292FF" fill-opacity="1.000000" fill-rule="nonzero"/>
        </g>
    </g>

    <g id="nextJs">
        <defs>
            <clipPath id="clip571_77">
                <rect width="20.000000" height="20.000000" fill="white" fill-opacity="0"/>
            </clipPath>
        </defs>
        <rect width="20.000000" height="20.000000" fill="#FFFFFF" fill-opacity="0"/>
        <g clip-path="url(#clip571_77)">
            <path d="M9.64 0C9.49 0 9.38 0 9.34 0C9.24 0.01 9.14 0.02 9.04 0.03C6.2 0.28 3.54 1.82 1.85 4.17C0.92 5.46 0.31 6.96 0.09 8.54C0.01 9.09 0 9.25 0 10C0 10.74 0.01 10.9 0.09 11.45C0.63 15.21 3.3 18.36 6.93 19.53C7.58 19.74 8.26 19.88 9.04 19.97C9.34 20 10.65 20 10.95 19.97C12.3 19.82 13.44 19.49 14.56 18.92C14.73 18.83 14.76 18.81 14.74 18.79C14.72 18.77 13.99 17.79 13.11 16.6L11.51 14.44L9.51 11.48C8.84 10.48 8.17 9.5 7.49 8.51C7.48 8.51 7.47 9.83 7.47 11.44C7.46 14.26 7.46 14.37 7.43 14.43C7.39 14.51 7.33 14.58 7.25 14.61C7.19 14.64 7.14 14.65 6.84 14.65L6.5 14.65L6.41 14.59C6.36 14.56 6.31 14.51 6.28 14.45L6.24 14.36L6.25 10.44L6.25 6.52L6.31 6.44C6.35 6.4 6.4 6.36 6.46 6.33C6.54 6.29 6.57 6.28 6.91 6.28C7.31 6.28 7.37 6.3 7.48 6.41C8.29 7.62 9.09 8.83 9.89 10.05C11.2 12.04 12.52 14.03 13.83 16.02L15.42 18.42L15.5 18.37C16.26 17.86 16.95 17.25 17.55 16.57C18.81 15.12 19.63 13.35 19.91 11.45C19.99 10.9 20 10.74 20 10C20 9.25 19.99 9.09 19.91 8.54C19.36 4.79 16.69 1.63 13.07 0.46C12.39 0.25 11.69 0.1 10.98 0.03C10.54 0 10.09 -0.01 9.64 0L9.64 0ZM13.03 6.01C13.32 6.01 13.37 6.01 13.43 6.05C13.48 6.07 13.52 6.1 13.56 6.14C13.59 6.18 13.62 6.23 13.63 6.28C13.65 6.33 13.65 7.42 13.65 9.87L13.64 13.38L13.02 12.43L12.4 11.48L12.4 8.93C12.4 7.27 12.41 6.35 12.42 6.3C12.43 6.25 12.46 6.2 12.49 6.16C12.52 6.12 12.57 6.08 12.61 6.05C12.69 6.01 12.72 6.01 13.03 6.01L13.03 6.01Z"
                  fill="#FFFFFF" fill-opacity="1.000000" fill-rule="nonzero"/>
        </g>
    </g>

    <g id="viteSvg">
        <defs>
            <clipPath id="clip571_83">
                <rect width="20.000000" height="20.000000" fill="white" fill-opacity="0"/>
            </clipPath>
            <linearGradient x1="1.105097" y1="2.656726" x2="11.327076" y2="16.538990" id="paint_linear_571_85_0"
                            gradientUnits="userSpaceOnUse">
                <stop stop-color="#41D1FF"/>
                <stop offset="1.000000" stop-color="#BD34FE"/>
            </linearGradient>
            <linearGradient x1="9.526091" y1="1.577360" x2="11.375199" y2="14.262043" id="paint_linear_571_86_0"
                            gradientUnits="userSpaceOnUse">
                <stop stop-color="#FFEA83"/>
                <stop offset="0.083000" stop-color="#FFDD35"/>
                <stop offset="1.000000" stop-color="#FFA800"/>
            </linearGradient>
        </defs>
        <rect width="20.000000" height="20.000000" fill="#FFFFFF" fill-opacity="0"/>
        <g clip-path="url(#clip571_83)">
            <path d="M18.67 3.84L10.46 18.52C10.42 18.59 10.36 18.65 10.3 18.69C10.23 18.73 10.15 18.75 10.07 18.75C9.99 18.75 9.91 18.73 9.85 18.69C9.78 18.65 9.72 18.6 9.68 18.53L1.3 3.84C1.26 3.76 1.24 3.68 1.25 3.59C1.25 3.51 1.28 3.43 1.33 3.36C1.38 3.29 1.44 3.24 1.52 3.2C1.6 3.17 1.69 3.16 1.77 3.18L9.99 4.65C10.05 4.66 10.1 4.66 10.15 4.65L18.2 3.18C18.29 3.16 18.37 3.17 18.45 3.2C18.53 3.24 18.6 3.29 18.65 3.36C18.69 3.43 18.72 3.51 18.73 3.59C18.73 3.68 18.71 3.76 18.67 3.84L18.67 3.84Z"
                  fill="url(#paint_linear_571_85_0)" fill-opacity="1.000000" fill-rule="nonzero"/>
            <path d="M13.91 1.25L7.83 2.44C7.78 2.45 7.74 2.47 7.71 2.51C7.67 2.55 7.66 2.6 7.65 2.65L7.28 8.96C7.28 9 7.28 9.03 7.3 9.06C7.31 9.09 7.33 9.12 7.36 9.14C7.38 9.17 7.41 9.18 7.45 9.19C7.48 9.2 7.52 9.2 7.55 9.19L9.24 8.8C9.28 8.79 9.32 8.79 9.35 8.8C9.39 8.81 9.42 8.83 9.45 8.86C9.48 8.89 9.5 8.92 9.51 8.95C9.52 8.99 9.52 9.03 9.51 9.06L9.01 11.53C9 11.56 9 11.6 9.02 11.64C9.03 11.68 9.05 11.71 9.08 11.74C9.11 11.76 9.14 11.78 9.18 11.79C9.22 11.8 9.26 11.8 9.29 11.78L10.34 11.47C10.38 11.46 10.41 11.45 10.45 11.46C10.49 11.47 10.53 11.49 10.55 11.51C10.58 11.54 10.6 11.57 10.62 11.61C10.63 11.65 10.63 11.69 10.62 11.73L9.82 15.59C9.77 15.83 10.09 15.97 10.23 15.76L10.32 15.62L15.27 5.74C15.29 5.7 15.3 5.66 15.29 5.62C15.29 5.57 15.28 5.53 15.25 5.5C15.22 5.47 15.19 5.44 15.15 5.43C15.11 5.41 15.07 5.41 15.03 5.42L13.29 5.75C13.25 5.76 13.21 5.76 13.18 5.75C13.14 5.73 13.11 5.71 13.08 5.68C13.06 5.66 13.04 5.62 13.03 5.58C13.02 5.55 13.02 5.51 13.03 5.47L14.17 1.53C14.18 1.49 14.18 1.45 14.17 1.42C14.16 1.38 14.14 1.35 14.12 1.32C14.09 1.29 14.06 1.27 14.02 1.26C13.99 1.24 13.95 1.24 13.91 1.25L13.91 1.25Z"
                  fill="url(#paint_linear_571_86_0)" fill-opacity="1.000000" fill-rule="nonzero"/>
        </g>
    </g>

    <g id="jestSvg">
        <defs>
            <clipPath id="clip571_101">
                <rect width="20.000000" height="20.000000" fill="white" fill-opacity="0"/>
            </clipPath>
        </defs>
        <rect width="20.000000" height="20.000000" fill="#FFFFFF" fill-opacity="0"/>
        <g clip-path="url(#clip571_101)">
            <path d="M16.93 9.86C16.93 9.43 16.75 9.02 16.45 8.71C16.14 8.4 15.73 8.23 15.3 8.23C15.24 8.23 15.18 8.24 15.13 8.24L17.36 1.64L7.86 1.64L10.09 8.24C10.06 8.24 10.02 8.23 9.99 8.23C9.6 8.23 9.23 8.37 8.93 8.62C8.63 8.88 8.44 9.23 8.38 9.61C8.32 10 8.4 10.39 8.6 10.72C8.81 11.05 9.13 11.3 9.5 11.41C9.15 12.01 8.72 12.55 8.22 13.03C7.56 13.65 6.78 14.13 5.93 14.44C5.46 14.22 5.08 13.82 4.89 13.33C4.7 12.84 4.7 12.29 4.89 11.8C4.94 11.69 4.99 11.57 5.04 11.46C5.4 11.37 5.72 11.17 5.95 10.87C6.18 10.58 6.3 10.21 6.29 9.84C6.28 9.47 6.15 9.11 5.91 8.82C5.67 8.54 5.33 8.34 4.97 8.27C4.6 8.2 4.22 8.26 3.89 8.44C3.56 8.61 3.31 8.9 3.16 9.24C3.02 9.58 2.99 9.97 3.1 10.32C3.2 10.68 3.42 11 3.73 11.21C3.21 12.15 2.81 13.16 2.55 14.2C2.33 15.54 2.55 16.95 3.7 17.75C6.39 19.61 9.31 16.6 12.38 15.84C13.5 15.56 14.72 15.61 15.7 15.04C16.06 14.84 16.36 14.56 16.6 14.23C16.83 13.89 16.99 13.51 17.07 13.11C17.13 12.73 17.12 12.33 17.03 11.96C16.94 11.58 16.78 11.22 16.55 10.91C16.79 10.61 16.93 10.25 16.92 9.86L16.93 9.86ZM11.62 9.87L11.62 9.86C11.62 9.58 11.55 9.31 11.41 9.06C11.27 8.82 11.08 8.62 10.83 8.47L12.61 4.87L14.39 8.5C14.17 8.65 13.99 8.85 13.86 9.09C13.73 9.33 13.67 9.59 13.67 9.86L13.67 9.89L11.62 9.87Z"
                  fill="#C63D14" fill-opacity="1.000000" fill-rule="nonzero"/>
            <path d="M17.32 9.86C17.32 9.39 17.16 8.93 16.86 8.57C16.56 8.2 16.14 7.96 15.67 7.87L17.92 1.25L7.3 1.25L9.55 7.88C9.16 7.97 8.8 8.17 8.52 8.47C8.25 8.76 8.06 9.13 8 9.52C7.93 9.92 7.98 10.33 8.15 10.69C8.31 11.06 8.58 11.37 8.93 11.58C8.64 12 8.31 12.39 7.95 12.74C7.37 13.28 6.7 13.71 5.97 14C5.63 13.8 5.37 13.49 5.24 13.11C5.11 12.73 5.12 12.32 5.26 11.95L5.29 11.9L5.33 11.79C5.75 11.64 6.11 11.37 6.35 11C6.6 10.63 6.72 10.2 6.69 9.76C6.67 9.32 6.5 8.9 6.22 8.56C5.93 8.22 5.55 7.99 5.12 7.89C4.69 7.8 4.24 7.84 3.83 8.02C3.43 8.2 3.1 8.51 2.89 8.9C2.68 9.29 2.6 9.73 2.66 10.17C2.73 10.6 2.93 11.01 3.25 11.32C3.18 11.46 3.11 11.61 3.03 11.76C2.63 12.5 2.33 13.3 2.16 14.13C1.87 15.88 2.34 17.28 3.48 18.07C4.09 18.51 4.83 18.75 5.58 18.75C6.91 18.75 8.26 18.08 9.58 17.42C10.5 16.92 11.47 16.52 12.48 16.22C12.84 16.13 13.21 16.08 13.61 16.02C14.41 15.96 15.19 15.74 15.91 15.38C16.31 15.15 16.66 14.83 16.93 14.45C17.2 14.07 17.38 13.63 17.46 13.17C17.59 12.39 17.44 11.59 17.03 10.92C17.22 10.6 17.33 10.23 17.33 9.86L17.32 9.86ZM16.53 9.86C16.53 10.1 16.46 10.34 16.32 10.55C16.19 10.75 15.99 10.91 15.77 11C15.54 11.09 15.3 11.12 15.06 11.07C14.82 11.02 14.6 10.9 14.43 10.73C14.25 10.56 14.14 10.34 14.09 10.1C14.04 9.86 14.07 9.62 14.16 9.39C14.25 9.17 14.41 8.97 14.61 8.84C14.82 8.7 15.05 8.63 15.3 8.63C15.62 8.63 15.94 8.76 16.17 8.99C16.4 9.22 16.53 9.53 16.53 9.86ZM16.81 2.04L14.82 7.89C14.74 7.91 14.66 7.94 14.57 7.97L12.62 3.97L10.65 7.94C10.56 7.92 10.48 7.89 10.39 7.87L8.41 2.04L16.81 2.04ZM9.99 8.63C10.23 8.63 10.47 8.7 10.67 8.84C10.88 8.97 11.04 9.17 11.13 9.39C11.22 9.62 11.25 9.86 11.2 10.1C11.15 10.34 11.03 10.56 10.86 10.73C10.69 10.9 10.47 11.02 10.23 11.07C9.99 11.12 9.75 11.09 9.52 11C9.29 10.91 9.1 10.75 8.97 10.55C8.83 10.34 8.76 10.1 8.76 9.86C8.76 9.53 8.89 9.22 9.12 8.99C9.35 8.76 9.66 8.63 9.99 8.63ZM4.66 8.64C4.91 8.64 5.15 8.71 5.35 8.85C5.55 8.99 5.71 9.18 5.8 9.4C5.9 9.63 5.92 9.88 5.87 10.11C5.82 10.35 5.71 10.57 5.53 10.75C5.36 10.92 5.14 11.03 4.9 11.08C4.66 11.13 4.42 11.1 4.19 11.01C3.97 10.92 3.77 10.76 3.64 10.55C3.5 10.35 3.43 10.11 3.43 9.87C3.43 9.54 3.56 9.23 3.79 9C4.02 8.77 4.34 8.64 4.66 8.64L4.66 8.64ZM16.68 13.04C16.61 13.38 16.48 13.71 16.27 14C16.07 14.28 15.81 14.52 15.51 14.69C14.87 15 14.19 15.18 13.49 15.24C13.1 15.29 12.69 15.35 12.29 15.45C11.23 15.76 10.2 16.18 9.23 16.71C7.25 17.69 5.54 18.54 3.93 17.42C2.75 16.6 2.81 15.09 2.94 14.26C3.11 13.51 3.38 12.78 3.75 12.11L3.91 11.76C4.08 11.82 4.26 11.87 4.44 11.89C4.28 12.45 4.32 13.05 4.56 13.58C4.8 14.11 5.22 14.54 5.75 14.8L5.9 14.87L6.07 14.82C6.97 14.49 7.79 13.98 8.49 13.32C8.95 12.89 9.35 12.4 9.69 11.87C10.12 11.93 10.56 11.86 10.95 11.65C11.33 11.45 11.64 11.12 11.82 10.73C12.01 10.33 12.06 9.89 11.97 9.46C11.89 9.03 11.66 8.64 11.34 8.35L12.61 5.78L13.9 8.4C13.53 8.75 13.31 9.23 13.28 9.74C13.25 10.25 13.41 10.75 13.73 11.14C14.06 11.53 14.51 11.79 15.02 11.86C15.52 11.93 16.03 11.81 16.45 11.53C16.68 11.99 16.76 12.52 16.67 13.04L16.68 13.04Z"
                  fill="#FFFFFF" fill-opacity="1.000000" fill-rule="nonzero"/>
        </g>
    </g>

    <g id="testingReactSvg">
        <defs>
            <clipPath id="clip571_108">
                <rect width="20.000000" height="20.000000" fill="white" fill-opacity="0"/>
            </clipPath>
            <radialGradient gradientTransform="translate(10.054 9.83138) rotate(0) scale(9.9271 9.92711)" cx="0.000000"
                            cy="0.000000" r="1.000000" id="paint_radial_571_109_0" gradientUnits="userSpaceOnUse">
                <stop stop-color="#E33332"/>
                <stop offset="0.200000" stop-color="#E03330"/>
                <stop offset="0.380000" stop-color="#D52E2C"/>
                <stop offset="0.540000" stop-color="#C32827"/>
                <stop offset="0.710000" stop-color="#A91F23"/>
                <stop offset="0.860000" stop-color="#89181A"/>
                <stop offset="1.000000" stop-color="#640E0E"/>
            </radialGradient>
            <linearGradient x1="1.634931" y1="15.737686" x2="7.162333" y2="15.737686" id="paint_linear_571_110_0"
                            gradientUnits="userSpaceOnUse">
                <stop stop-color="#F7B3C5"/>
                <stop offset="0.190000" stop-color="#F7B0C2"/>
                <stop offset="0.380000" stop-color="#F6A4B6"/>
                <stop offset="0.580000" stop-color="#F390A5"/>
                <stop offset="0.790000" stop-color="#E7728B"/>
                <stop offset="0.990000" stop-color="#DC4D6C"/>
                <stop offset="1.000000" stop-color="#DA4B6A"/>
            </linearGradient>
            <linearGradient x1="0.038018" y1="9.472493" x2="7.578494" y2="9.472493" id="paint_linear_571_111_0"
                            gradientUnits="userSpaceOnUse">
                <stop stop-color="#F7B3C5"/>
                <stop offset="0.190000" stop-color="#F7B0C2"/>
                <stop offset="0.380000" stop-color="#F6A4B6"/>
                <stop offset="0.580000" stop-color="#F390A5"/>
                <stop offset="0.790000" stop-color="#E7728B"/>
                <stop offset="0.990000" stop-color="#DC4D6C"/>
                <stop offset="1.000000" stop-color="#DA4B6A"/>
            </linearGradient>
            <radialGradient gradientTransform="translate(4.44757 2.99157) rotate(0) scale(3.4725 3.47251)" cx="0.000000"
                            cy="0.000000" r="1.000000" id="paint_radial_571_112_0" gradientUnits="userSpaceOnUse">
                <stop stop-color="#F7B3C5"/>
                <stop offset="0.190000" stop-color="#F7B0C2"/>
                <stop offset="0.380000" stop-color="#F6A4B6"/>
                <stop offset="0.580000" stop-color="#F390A5"/>
                <stop offset="0.790000" stop-color="#E7728B"/>
                <stop offset="0.990000" stop-color="#DC4D6C"/>
                <stop offset="1.000000" stop-color="#DA4B6A"/>
            </radialGradient>
            <radialGradient gradientTransform="translate(8.20451 16.1074) rotate(0) scale(4.29539 4.2954)" cx="0.000000"
                            cy="0.000000" r="1.000000" id="paint_radial_571_113_0" gradientUnits="userSpaceOnUse">
                <stop stop-color="#F7B3C5"/>
                <stop offset="0.190000" stop-color="#F7B0C2"/>
                <stop offset="0.380000" stop-color="#F6A4B6"/>
                <stop offset="0.580000" stop-color="#F390A5"/>
                <stop offset="0.790000" stop-color="#E7728B"/>
                <stop offset="0.990000" stop-color="#DC4D6C"/>
                <stop offset="1.000000" stop-color="#DA4B6A"/>
            </radialGradient>
            <linearGradient x1="12.837891" y1="15.737726" x2="18.364513" y2="15.737726" id="paint_linear_571_114_0"
                            gradientUnits="userSpaceOnUse">
                <stop stop-color="#DA4B6A"/>
                <stop offset="0.010000" stop-color="#DC4D6C"/>
                <stop offset="0.210000" stop-color="#E7728B"/>
                <stop offset="0.420000" stop-color="#F390A5"/>
                <stop offset="0.620000" stop-color="#F6A4B6"/>
                <stop offset="0.810000" stop-color="#F7B0C2"/>
                <stop offset="1.000000" stop-color="#F7B3C5"/>
            </linearGradient>
            <linearGradient x1="12.420597" y1="9.472532" x2="19.961842" y2="9.472532" id="paint_linear_571_115_0"
                            gradientUnits="userSpaceOnUse">
                <stop stop-color="#DA4B6A"/>
                <stop offset="0.010000" stop-color="#DC4D6C"/>
                <stop offset="0.210000" stop-color="#E7728B"/>
                <stop offset="0.420000" stop-color="#F390A5"/>
                <stop offset="0.620000" stop-color="#F6A4B6"/>
                <stop offset="0.810000" stop-color="#F7B0C2"/>
                <stop offset="1.000000" stop-color="#F7B3C5"/>
            </linearGradient>
            <radialGradient gradientTransform="translate(15.661 2.99052) rotate(0) scale(3.47251 3.47248)" cx="0.000000"
                            cy="0.000000" r="1.000000" id="paint_radial_571_116_0" gradientUnits="userSpaceOnUse">
                <stop stop-color="#F7B3C5"/>
                <stop offset="0.190000" stop-color="#F7B0C2"/>
                <stop offset="0.380000" stop-color="#F6A4B6"/>
                <stop offset="0.580000" stop-color="#F390A5"/>
                <stop offset="0.790000" stop-color="#E7728B"/>
                <stop offset="0.990000" stop-color="#DC4D6C"/>
                <stop offset="1.000000" stop-color="#DA4B6A"/>
            </radialGradient>
        </defs>
        <rect width="20.000000" height="20.000000" fill="#FFFFFF" fill-opacity="0"/>
        <g clip-path="url(#clip571_108)">
            <path d="M19.51 8.11C20 10.02 17.89 12.27 15.25 11.63C18.61 9.18 17.07 6.05 15.29 4.54C13.37 2.91 15.23 2.39 15.86 2.98C15.84 1.78 11.64 2.05 15.32 5.88C17.2 7.85 14.98 12.2 12.33 8.89C12.3 8.86 12.28 8.83 12.27 8.8C12.69 8.62 13.05 8.13 13.05 7.34C13.05 7.06 12.99 6.78 12.88 6.52C13.19 5.89 13.47 5.15 13.47 4.22C13.47 1.98 12.02 0 9.99 0C7.97 0 6.52 1.98 6.52 4.22C6.52 5.15 6.8 5.9 7.11 6.52C7 6.78 6.94 7.06 6.94 7.34C6.94 8.14 7.29 8.62 7.72 8.8C7.7 8.83 7.69 8.86 7.66 8.89C5.01 12.2 2.79 7.85 4.67 5.88C8.35 2.06 4.15 1.79 4.13 2.98C4.75 2.39 6.62 2.91 4.69 4.54C2.91 6.04 1.38 9.18 4.74 11.63C2.1 12.27 -0.01 10.02 0.48 8.11C-0.38 9.69 0.25 12.68 3.66 13.25C0.04 14.08 1.13 19.09 3.68 18.29C1.49 18.16 1.73 15.64 2.62 14.88C3.6 14.04 4.83 14.63 7.09 14.26C7.07 16.29 9.05 17.38 8.01 18.54C6.91 19.78 5.4 18.45 5.64 17.24C4.59 19.41 7.58 21.14 8.89 18.61C9.9 16.67 7.21 13.16 9.99 13.16C12.77 13.16 10.09 16.67 11.1 18.61C12.41 21.14 15.4 19.41 14.35 17.24C14.58 18.45 13.08 19.78 11.98 18.54C10.94 17.38 12.92 16.28 12.9 14.25C15.15 14.63 16.39 14.04 17.37 14.88C18.26 15.64 18.5 18.16 16.31 18.28C18.87 19.09 19.96 14.08 16.33 13.25C19.73 12.67 20.37 9.68 19.51 8.11Z"
                  fill="url(#paint_radial_571_109_0)" fill-opacity="1.000000" fill-rule="nonzero"/>
            <path d="M2.66 15.03C3.64 14.19 4.76 14.93 7.09 14.25C7.09 14.25 7.13 13.63 7.16 13.16C6.45 13.7 5.15 13.63 4.06 13.79C0.49 14.31 1.28 18.6 3.68 18.29C1.91 18 1.77 15.79 2.66 15.03L2.66 15.03Z"
                  fill="url(#paint_linear_571_110_0)" fill-opacity="1.000000" fill-rule="nonzero"/>
            <path d="M7.29 11.96C7.69 11.35 7.74 10.36 6.94 11.26C4.24 14.28 -0.44 11.81 0.48 8.11C-0.51 9.45 -0.04 12.95 3.66 13.25C4.59 12.94 6.5 13.18 7.29 11.96Z"
                  fill="url(#paint_linear_571_111_0)" fill-opacity="1.000000" fill-rule="nonzero"/>
            <path d="M4.74 11.63C4.74 11.63 5.69 11.53 6.3 10.81C3.81 11.74 1.76 7.71 4.88 4.99C7.31 2.87 4.84 2.04 4.13 2.98C4.39 2.72 6.51 2.86 4.58 4.5C2.8 6 0.92 9.12 4.74 11.63Z"
                  fill="url(#paint_radial_571_112_0)" fill-opacity="1.000000" fill-rule="nonzero"/>
            <path d="M11.79 18.95C10.75 17.79 11.79 16.74 11.98 14.9C12.11 13.66 11.65 12.3 10 12.3C8.34 12.3 7.88 13.67 8.01 14.9C8.2 16.74 9.24 17.79 8.2 18.95C7.1 20.18 5.04 18.9 5.64 17.23C4.18 19.66 7.89 21.17 9.2 18.65C10.21 16.7 7.21 13.3 10 13.3C12.78 13.3 9.78 16.7 10.79 18.65C12.1 21.17 15.81 19.66 14.35 17.23C14.94 18.9 12.89 20.18 11.79 18.95Z"
                  fill="url(#paint_radial_571_113_0)" fill-opacity="1.000000" fill-rule="nonzero"/>
            <path d="M15.93 13.79C14.84 13.63 13.54 13.7 12.83 13.16C12.86 13.63 12.9 14.25 12.9 14.25C15.23 14.93 16.35 14.19 17.33 15.03C18.22 15.79 18.08 18 16.31 18.28C18.71 18.6 19.5 14.31 15.93 13.79Z"
                  fill="url(#paint_linear_571_114_0)" fill-opacity="1.000000" fill-rule="nonzero"/>
            <path d="M19.51 8.11C20.43 11.81 15.75 14.28 13.05 11.26C12.25 10.36 12.3 11.35 12.7 11.96C13.49 13.18 15.4 12.94 16.33 13.25C20.02 12.95 20.5 9.45 19.51 8.11Z"
                  fill="url(#paint_linear_571_115_0)" fill-opacity="1.000000" fill-rule="nonzero"/>
            <path d="M13.69 10.81C14.3 11.53 15.25 11.63 15.25 11.63C19.07 9.13 17.19 6 15.41 4.5C13.47 2.86 15.59 2.72 15.85 2.98C15.14 2.04 12.67 2.87 15.1 4.99C18.23 7.71 16.18 11.74 13.69 10.81Z"
                  fill="url(#paint_radial_571_116_0)" fill-opacity="1.000000" fill-rule="nonzero"/>
            <g opacity="0.300000">
                <path d="M11.02 2.77C11.02 3.39 10 3.39 10 2.77C10 2.16 11.02 2.16 11.02 2.77ZM9.41 3.34C9.41 3.76 8.7 3.76 8.7 3.34C8.7 2.91 9.41 2.91 9.41 3.34ZM9.86 1.38C9.86 1.81 9.15 1.81 9.15 1.38C9.15 0.96 9.86 0.96 9.86 1.38ZM8.38 4.39C8.38 4.61 8.03 4.61 8.03 4.39C8.03 4.18 8.38 4.18 8.38 4.39ZM8.45 2.31C8.45 2.6 7.96 2.6 7.96 2.31C7.96 2.02 8.45 2.02 8.45 2.31ZM9.86 4.89C9.86 5.19 9.37 5.19 9.37 4.89C9.37 4.6 9.86 4.6 9.86 4.89Z"
                      fill="#4B1313" fill-opacity="1.000000" fill-rule="nonzero"/>
            </g>
            <path d="M8.74 7.34C8.74 8.46 7.47 8.46 7.47 7.34C7.47 6.22 8.74 6.22 8.74 7.34Z" fill="#302D3B"
                  fill-opacity="1.000000" fill-rule="nonzero"/>
            <path d="M8.09 7.05C8.09 7.08 8.09 7.11 8.08 7.13C8.07 7.16 8.06 7.18 8.04 7.2C8.02 7.22 8 7.24 7.97 7.25C7.95 7.26 7.92 7.27 7.9 7.27C7.87 7.27 7.84 7.26 7.82 7.25C7.79 7.24 7.77 7.22 7.75 7.2C7.73 7.18 7.72 7.16 7.71 7.13C7.7 7.11 7.7 7.08 7.7 7.05C7.7 7.03 7.7 7 7.71 6.97C7.72 6.95 7.73 6.92 7.75 6.9C7.77 6.88 7.79 6.87 7.82 6.86C7.84 6.85 7.87 6.84 7.9 6.84C7.92 6.84 7.95 6.85 7.97 6.86C8 6.87 8.02 6.88 8.04 6.9C8.06 6.92 8.07 6.95 8.08 6.97C8.09 7 8.09 7.03 8.09 7.05Z"
                  fill="#6F828A" fill-opacity="1.000000" fill-rule="nonzero"/>
            <path d="M12.52 7.34C12.52 8.46 11.25 8.46 11.25 7.34C11.25 6.22 12.52 6.22 12.52 7.34Z" fill="#302D3B"
                  fill-opacity="1.000000" fill-rule="nonzero"/>
            <path d="M11.87 7.05C11.87 7.08 11.87 7.11 11.86 7.13C11.85 7.16 11.83 7.18 11.82 7.2C11.8 7.22 11.78 7.24 11.75 7.25C11.73 7.26 11.7 7.27 11.67 7.27C11.65 7.27 11.62 7.26 11.59 7.25C11.57 7.24 11.55 7.22 11.53 7.2C11.51 7.18 11.5 7.16 11.49 7.13C11.48 7.11 11.47 7.08 11.48 7.05C11.47 7.03 11.48 7 11.49 6.97C11.5 6.95 11.51 6.92 11.53 6.9C11.55 6.88 11.57 6.87 11.59 6.86C11.62 6.85 11.65 6.84 11.67 6.84C11.7 6.84 11.73 6.85 11.75 6.86C11.78 6.87 11.8 6.88 11.82 6.9C11.83 6.92 11.85 6.95 11.86 6.97C11.87 7 11.87 7.03 11.87 7.05Z"
                  fill="#6F828A" fill-opacity="1.000000" fill-rule="nonzero"/>
            <path d="M9.41 9.57C9.41 10.21 9.35 10.72 9.29 10.72C9.23 10.72 9.18 10.21 9.18 9.57C9.18 8.93 9.24 8.41 9.3 8.41C9.36 8.41 9.41 8.93 9.41 9.57Z"
                  fill="#9E1C20" fill-opacity="1.000000" fill-rule="nonzero"/>
            <path d="M10.1 9.57C10.1 10.32 10.06 10.92 10.02 10.92C9.97 10.92 9.93 10.32 9.93 9.57C9.93 8.82 9.97 8.21 10.02 8.21C10.06 8.21 10.1 8.82 10.1 9.57Z"
                  fill="#9E1C20" fill-opacity="1.000000" fill-rule="evenodd"/>
            <path d="M10.81 9.55C10.81 10.17 10.76 10.68 10.7 10.68C10.64 10.68 10.59 10.18 10.59 9.55C10.59 8.93 10.64 8.43 10.7 8.43C10.76 8.43 10.81 8.93 10.81 9.55Z"
                  fill="#9E1C20" fill-opacity="1.000000" fill-rule="nonzero"/>
            <path d="M15.54 11.33C15.41 11.16 16.18 10.58 16.31 10.76C16.44 10.93 15.68 11.51 15.54 11.33Z"
                  fill="#F389A4" fill-opacity="1.000000" fill-rule="nonzero"/>
            <path d="M15.74 11.22C15.68 11.14 16.09 10.83 16.15 10.91C16.21 10.99 15.79 11.3 15.74 11.22Z"
                  fill="#E34E70" fill-opacity="1.000000" fill-rule="nonzero"/>
            <path d="M16 10.57C15.84 10.42 16.42 9.82 16.58 9.97C16.73 10.12 16.15 10.72 16 10.57Z" fill="#F389A4"
                  fill-opacity="1.000000" fill-rule="nonzero"/>
            <path d="M16.15 10.45C16.07 10.38 16.39 10.06 16.46 10.12C16.53 10.19 16.22 10.52 16.15 10.45Z"
                  fill="#E34E70" fill-opacity="1.000000" fill-rule="nonzero"/>
            <path d="M16.82 9.46C16.61 9.4 16.85 8.6 17.06 8.67C17.27 8.73 17.02 9.53 16.82 9.46L16.82 9.46Z"
                  fill="#F7B3C5" fill-opacity="1.000000" fill-rule="nonzero"/>
            <path d="M16.9 9.29C16.8 9.26 16.94 8.82 17.03 8.85C17.13 8.88 16.99 9.32 16.9 9.29Z" fill="#E34E70"
                  fill-opacity="1.000000" fill-rule="nonzero"/>
            <path d="M14.69 11.3C14.59 11.1 15.43 10.71 15.52 10.91C15.61 11.11 14.78 11.5 14.69 11.3Z" fill="#F389A4"
                  fill-opacity="1.000000" fill-rule="nonzero"/>
            <path d="M14.89 11.24C14.85 11.15 15.31 10.93 15.35 11.02C15.39 11.11 14.93 11.33 14.89 11.24Z"
                  fill="#E34E70" fill-opacity="1.000000" fill-rule="nonzero"/>
            <path d="M16.79 10.18C16.6 10.06 17.06 9.36 17.24 9.48C17.42 9.6 16.97 10.29 16.79 10.18Z" fill="#F7B3C5"
                  fill-opacity="1.000000" fill-rule="nonzero"/>
            <path d="M16.91 10.03C16.83 9.98 17.08 9.6 17.16 9.65C17.24 9.7 17 10.09 16.91 10.03Z" fill="#E34E70"
                  fill-opacity="1.000000" fill-rule="nonzero"/>
            <path d="M13.42 12.43C13.5 12.21 14.28 12.52 14.21 12.74C14.13 12.95 13.33 12.64 13.42 12.43Z"
                  fill="#F389A4" fill-opacity="1.000000" fill-rule="nonzero"/>
            <path d="M13.58 12.52C13.62 12.42 14.05 12.59 14.01 12.69C13.98 12.79 13.54 12.62 13.58 12.52Z"
                  fill="#E34E70" fill-opacity="1.000000" fill-rule="nonzero"/>
            <path d="M14.52 12.68C14.58 12.41 15.39 12.59 15.33 12.86C15.27 13.13 14.46 12.95 14.52 12.68Z"
                  fill="#F389A4" fill-opacity="1.000000" fill-rule="nonzero"/>
            <path d="M14.7 12.76C14.72 12.63 15.17 12.73 15.14 12.86C15.11 12.98 14.67 12.88 14.7 12.76Z" fill="#E34E70"
                  fill-opacity="1.000000" fill-rule="nonzero"/>
            <path d="M12.73 11.49C12.93 11.27 13.61 11.89 13.41 12.11C13.22 12.33 12.53 11.71 12.73 11.49Z"
                  fill="#F389A4" fill-opacity="1.000000" fill-rule="nonzero"/>
            <path d="M12.86 11.65C12.95 11.55 13.33 11.89 13.23 11.99C13.14 12.09 12.77 11.76 12.86 11.65Z"
                  fill="#E34E70" fill-opacity="1.000000" fill-rule="nonzero"/>
            <path d="M15.61 12.98C15.61 12.79 16.31 12.81 16.31 13C16.3 13.18 15.61 13.17 15.61 12.98Z" fill="#F7B3C5"
                  fill-opacity="1.000000" fill-rule="nonzero"/>
            <path d="M15.77 13.01C15.77 12.92 16.15 12.93 16.15 13.02C16.15 13.1 15.77 13.09 15.77 13.01Z"
                  fill="#E34E70" fill-opacity="1.000000" fill-rule="nonzero"/>
            <path d="M13.02 13.72C13.08 13.45 13.89 13.63 13.83 13.9C13.77 14.17 12.96 13.99 13.02 13.72Z"
                  fill="#F389A4" fill-opacity="1.000000" fill-rule="nonzero"/>
            <path d="M13.2 13.8C13.22 13.67 13.67 13.77 13.64 13.89C13.61 14.02 13.17 13.92 13.2 13.8L13.2 13.8Z"
                  fill="#E34E70" fill-opacity="1.000000" fill-rule="nonzero"/>
            <path d="M9.5 12.84C9.5 12.57 10.48 12.55 10.49 12.83C10.49 13.11 9.51 13.12 9.5 12.84L9.5 12.84Z"
                  fill="#F389A4" fill-opacity="1.000000" fill-rule="nonzero"/>
            <path d="M9.73 12.87C9.73 12.75 10.26 12.74 10.26 12.87C10.27 12.99 9.73 13 9.73 12.87Z" fill="#E34E70"
                  fill-opacity="1.000000" fill-rule="nonzero"/>
            <path d="M10.77 13.17C10.96 12.97 11.56 13.56 11.37 13.75C11.17 13.95 10.58 13.37 10.77 13.17Z"
                  fill="#F389A4" fill-opacity="1.000000" fill-rule="nonzero"/>
            <path d="M10.88 13.33C10.97 13.24 11.3 13.56 11.21 13.65C11.12 13.73 10.8 13.42 10.88 13.33Z" fill="#E34E70"
                  fill-opacity="1.000000" fill-rule="nonzero"/>
            <path d="M11.72 13.96C12 13.97 11.95 14.8 11.68 14.79C11.4 14.77 11.45 13.94 11.72 13.96Z" fill="#F7B3C5"
                  fill-opacity="1.000000" fill-rule="nonzero"/>
            <path d="M11.68 14.14C11.8 14.15 11.78 14.6 11.65 14.6C11.53 14.59 11.55 14.14 11.68 14.14Z" fill="#E34E70"
                  fill-opacity="1.000000" fill-rule="nonzero"/>
            <path d="M11.25 14.8C11.52 14.85 11.35 15.66 11.08 15.61C10.81 15.56 10.98 14.74 11.25 14.8Z" fill="#F7B3C5"
                  fill-opacity="1.000000" fill-rule="nonzero"/>
            <path d="M11.18 14.97C11.3 15 11.21 15.44 11.09 15.42C10.97 15.39 11.06 14.95 11.18 14.97Z" fill="#E34E70"
                  fill-opacity="1.000000" fill-rule="nonzero"/>
            <path d="M11.52 15.66C11.79 15.72 11.62 16.53 11.35 16.48C11.08 16.42 11.25 15.61 11.52 15.66Z"
                  fill="#F7B3C5" fill-opacity="1.000000" fill-rule="nonzero"/>
            <path d="M11.45 15.84C11.57 15.86 11.48 16.31 11.35 16.28C11.23 16.26 11.32 15.81 11.45 15.84Z"
                  fill="#E34E70" fill-opacity="1.000000" fill-rule="nonzero"/>
            <path d="M10.9 16.57C11.17 16.62 11 17.43 10.73 17.38C10.46 17.33 10.63 16.51 10.9 16.57L10.9 16.57Z"
                  fill="#F7B3C5" fill-opacity="1.000000" fill-rule="nonzero"/>
            <path d="M10.83 16.74C10.95 16.77 10.86 17.22 10.74 17.19C10.61 17.16 10.71 16.72 10.83 16.74Z"
                  fill="#E34E70" fill-opacity="1.000000" fill-rule="nonzero"/>
            <path d="M11.05 17.52C11.33 17.53 11.3 18.36 11.02 18.35C10.74 18.34 10.78 17.51 11.05 17.52Z"
                  fill="#F7B3C5" fill-opacity="1.000000" fill-rule="nonzero"/>
            <path d="M11.01 17.7C11.14 17.71 11.12 18.16 10.99 18.16C10.87 18.16 10.88 17.7 11.01 17.7Z" fill="#E34E70"
                  fill-opacity="1.000000" fill-rule="nonzero"/>
            <path d="M10.91 18.69C11.13 18.52 11.57 19.06 11.35 19.24C11.14 19.41 10.7 18.87 10.91 18.69Z"
                  fill="#F7B3C5" fill-opacity="1.000000" fill-rule="nonzero"/>
            <path d="M10.99 18.84C11.08 18.76 11.32 19.06 11.22 19.14C11.12 19.21 10.89 18.92 10.99 18.84Z"
                  fill="#E34E70" fill-opacity="1.000000" fill-rule="nonzero"/>
            <path d="M11.64 19.21C11.75 19.01 12.25 19.29 12.14 19.48C12.03 19.68 11.53 19.41 11.64 19.21Z"
                  fill="#F389A4" fill-opacity="1.000000" fill-rule="nonzero"/>
            <path d="M11.74 19.29C11.79 19.2 12.06 19.35 12.01 19.45C11.96 19.54 11.69 19.39 11.74 19.29Z"
                  fill="#E34E70" fill-opacity="1.000000" fill-rule="nonzero"/>
            <path d="M12.27 19.82C12.29 19.61 12.79 19.65 12.77 19.86C12.75 20.07 12.26 20.03 12.27 19.82Z"
                  fill="#F389A4" fill-opacity="1.000000" fill-rule="nonzero"/>
            <path d="M12.38 19.85C12.39 19.76 12.66 19.78 12.66 19.87C12.65 19.97 12.38 19.95 12.38 19.85Z"
                  fill="#E34E70" fill-opacity="1.000000" fill-rule="nonzero"/>
            <path d="M12.97 19.69C12.92 19.51 13.36 19.4 13.41 19.59C13.45 19.77 13.01 19.88 12.97 19.69Z"
                  fill="#F389A4" fill-opacity="1.000000" fill-rule="nonzero"/>
            <path d="M13.08 19.69C13.06 19.61 13.3 19.55 13.32 19.63C13.34 19.72 13.09 19.78 13.08 19.69Z"
                  fill="#E34E70" fill-opacity="1.000000" fill-rule="nonzero"/>
            <path d="M13.63 19.71C13.56 19.53 13.98 19.36 14.05 19.54C14.12 19.71 13.71 19.88 13.63 19.71L13.63 19.71Z"
                  fill="#F389A4" fill-opacity="1.000000" fill-rule="nonzero"/>
            <path d="M13.74 19.69C13.7 19.61 13.93 19.51 13.97 19.59C14 19.67 13.77 19.77 13.74 19.69Z" fill="#E34E70"
                  fill-opacity="1.000000" fill-rule="nonzero"/>
            <path d="M14.01 19.24C13.87 19.11 14.18 18.78 14.32 18.91C14.45 19.04 14.15 19.37 14.01 19.24Z"
                  fill="#F389A4" fill-opacity="1.000000" fill-rule="nonzero"/>
            <path d="M14.09 19.18C14.03 19.12 14.2 18.94 14.26 19C14.33 19.06 14.16 19.24 14.09 19.18Z" fill="#E34E70"
                  fill-opacity="1.000000" fill-rule="nonzero"/>
            <path d="M14.52 18.65C14.33 18.59 14.46 18.16 14.64 18.21C14.83 18.26 14.7 18.7 14.52 18.65Z" fill="#F389A4"
                  fill-opacity="1.000000" fill-rule="nonzero"/>
            <path d="M14.57 18.55C14.49 18.53 14.55 18.29 14.64 18.32C14.72 18.34 14.65 18.58 14.57 18.55L14.57 18.55Z"
                  fill="#E34E70" fill-opacity="1.000000" fill-rule="nonzero"/>
            <path d="M14.03 14.38C14.05 14.11 14.88 14.18 14.86 14.46C14.83 14.73 14 14.66 14.03 14.38Z" fill="#F389A4"
                  fill-opacity="1.000000" fill-rule="nonzero"/>
            <path d="M14.21 14.43C14.22 14.31 14.68 14.35 14.67 14.47C14.65 14.6 14.2 14.56 14.21 14.43Z" fill="#E34E70"
                  fill-opacity="1.000000" fill-rule="nonzero"/>
            <path d="M15.02 14.09C15.03 13.82 15.86 13.84 15.85 14.11C15.85 14.38 15.02 14.37 15.02 14.09Z"
                  fill="#F7B3C5" fill-opacity="1.000000" fill-rule="nonzero"/>
            <path d="M15.21 14.13C15.21 14.01 15.66 14.02 15.66 14.14C15.66 14.26 15.21 14.26 15.21 14.13Z"
                  fill="#E34E70" fill-opacity="1.000000" fill-rule="nonzero"/>
            <path d="M15.96 14.44C16.02 14.18 16.75 14.34 16.68 14.6C16.62 14.87 15.9 14.7 15.96 14.44Z" fill="#F7B3C5"
                  fill-opacity="1.000000" fill-rule="nonzero"/>
            <path d="M16.12 14.51C16.15 14.39 16.54 14.48 16.51 14.6C16.49 14.72 16.09 14.63 16.12 14.51Z"
                  fill="#E34E70" fill-opacity="1.000000" fill-rule="nonzero"/>
            <path d="M16.97 14.46C17.09 14.22 17.69 14.53 17.57 14.77C17.45 15.02 16.84 14.7 16.97 14.46Z"
                  fill="#FACFDA" fill-opacity="1.000000" fill-rule="nonzero"/>
            <path d="M17.09 14.56C17.15 14.45 17.47 14.62 17.42 14.73C17.37 14.83 17.03 14.67 17.09 14.56Z"
                  fill="#E34E70" fill-opacity="1.000000" fill-rule="nonzero"/>
            <path d="M17.6 15.14C17.8 15.05 18.03 15.56 17.83 15.65C17.63 15.74 17.4 15.23 17.6 15.14L17.6 15.14Z"
                  fill="#FACFDA" fill-opacity="1.000000" fill-rule="nonzero"/>
            <path d="M17.63 15.27C17.72 15.23 17.85 15.51 17.76 15.54C17.67 15.58 17.54 15.31 17.63 15.27L17.63 15.27Z"
                  fill="#E34E70" fill-opacity="1.000000" fill-rule="nonzero"/>
            <path d="M18.16 15.75C18.38 15.75 18.38 16.31 18.16 16.31C17.95 16.3 17.94 15.75 18.16 15.75Z"
                  fill="#FACFDA" fill-opacity="1.000000" fill-rule="nonzero"/>
            <path d="M18.13 15.88C18.24 15.88 18.23 16.18 18.13 16.18C18.03 16.18 18.04 15.88 18.13 15.88Z"
                  fill="#E34E70" fill-opacity="1.000000" fill-rule="nonzero"/>
            <path d="M17.95 16.47C18.15 16.51 18.05 17 17.86 16.97C17.66 16.93 17.75 16.44 17.95 16.47Z" fill="#FACFDA"
                  fill-opacity="1.000000" fill-rule="nonzero"/>
            <path d="M17.9 16.58C17.99 16.6 17.94 16.87 17.85 16.85C17.76 16.84 17.81 16.56 17.9 16.58Z" fill="#E34E70"
                  fill-opacity="1.000000" fill-rule="nonzero"/>
            <path d="M17.97 17.19C18.13 17.28 17.91 17.68 17.75 17.59C17.59 17.49 17.81 17.1 17.97 17.19L17.97 17.19Z"
                  fill="#FACFDA" fill-opacity="1.000000" fill-rule="nonzero"/>
            <path d="M17.9 17.27C17.97 17.31 17.85 17.53 17.78 17.49C17.71 17.45 17.83 17.23 17.9 17.27Z" fill="#E34E70"
                  fill-opacity="1.000000" fill-rule="nonzero"/>
            <path d="M17.5 17.72C17.61 17.83 17.34 18.11 17.23 18C17.12 17.89 17.39 17.61 17.5 17.72Z" fill="#FACFDA"
                  fill-opacity="1.000000" fill-rule="nonzero"/>
            <path d="M17.43 17.77C17.48 17.82 17.33 17.97 17.28 17.92C17.23 17.87 17.38 17.72 17.43 17.77Z"
                  fill="#E34E70" fill-opacity="1.000000" fill-rule="nonzero"/>
            <path d="M16.45 12.87C16.39 12.6 17.19 12.41 17.26 12.68C17.32 12.94 16.51 13.13 16.45 12.87Z"
                  fill="#F7B3C5" fill-opacity="1.000000" fill-rule="nonzero"/>
            <path d="M16.64 12.86C16.61 12.74 17.05 12.63 17.08 12.75C17.11 12.87 16.67 12.98 16.64 12.86Z"
                  fill="#E34E70" fill-opacity="1.000000" fill-rule="nonzero"/>
            <path d="M17.48 12.94C17.4 12.71 18.19 12.44 18.27 12.67C18.35 12.89 17.56 13.17 17.48 12.94Z"
                  fill="#FACFDA" fill-opacity="1.000000" fill-rule="nonzero"/>
            <path d="M17.67 12.91C17.63 12.8 18.07 12.65 18.1 12.75C18.13 12.86 17.71 13.01 17.67 12.91Z" fill="#E34E70"
                  fill-opacity="1.000000" fill-rule="nonzero"/>
            <path d="M18.19 12.35C18.03 12.17 18.64 11.61 18.81 11.79C18.97 11.97 18.35 12.53 18.19 12.35Z"
                  fill="#FACFDA" fill-opacity="1.000000" fill-rule="nonzero"/>
            <path d="M18.35 12.24C18.28 12.17 18.61 11.86 18.69 11.94C18.76 12.02 18.42 12.32 18.35 12.24Z"
                  fill="#E34E70" fill-opacity="1.000000" fill-rule="nonzero"/>
            <path d="M19.2 11.78C19 11.64 19.46 10.95 19.66 11.08C19.86 11.22 19.39 11.91 19.2 11.78Z" fill="#FACFDA"
                  fill-opacity="1.000000" fill-rule="nonzero"/>
            <path d="M19.32 11.64C19.23 11.57 19.49 11.2 19.58 11.26C19.67 11.32 19.41 11.7 19.32 11.64Z" fill="#E34E70"
                  fill-opacity="1.000000" fill-rule="nonzero"/>
            <path d="M19.48 10.79C19.25 10.7 19.55 9.93 19.77 10.01C20 10.09 19.7 10.87 19.48 10.79Z" fill="#FACFDA"
                  fill-opacity="1.000000" fill-rule="nonzero"/>
            <path d="M19.57 10.63C19.47 10.59 19.63 10.16 19.73 10.2C19.83 10.24 19.68 10.66 19.57 10.63Z"
                  fill="#E34E70" fill-opacity="1.000000" fill-rule="nonzero"/>
            <path d="M19.89 9.72C19.72 9.74 19.65 9.12 19.83 9.1C20 9.08 20.07 9.7 19.89 9.72Z" fill="#FACFDA"
                  fill-opacity="1.000000" fill-rule="nonzero"/>
            <path d="M19.9 9.58C19.82 9.58 19.78 9.25 19.86 9.24C19.94 9.23 19.98 9.57 19.9 9.58Z" fill="#E34E70"
                  fill-opacity="1.000000" fill-rule="nonzero"/>
            <path d="M17.36 8.83C17.15 8.8 17.25 7.97 17.46 8C17.68 8.03 17.58 8.85 17.36 8.83Z" fill="#F7B3C5"
                  fill-opacity="1.000000" fill-rule="nonzero"/>
            <path d="M17.41 8.64C17.31 8.63 17.37 8.18 17.47 8.19C17.56 8.2 17.51 8.65 17.41 8.64L17.41 8.64Z"
                  fill="#E34E70" fill-opacity="1.000000" fill-rule="nonzero"/>
            <path d="M17.04 8.17C16.82 8.18 16.75 7.35 16.97 7.34C17.19 7.32 17.26 8.15 17.04 8.17Z" fill="#F7B3C5"
                  fill-opacity="1.000000" fill-rule="nonzero"/>
            <path d="M17.05 7.97C16.95 7.98 16.92 7.53 17.01 7.52C17.11 7.51 17.15 7.97 17.05 7.97L17.05 7.97Z"
                  fill="#E34E70" fill-opacity="1.000000" fill-rule="nonzero"/>
            <path d="M17.27 7.13C17.07 7.22 16.73 6.47 16.93 6.38C17.12 6.29 17.47 7.04 17.27 7.13Z" fill="#F7B3C5"
                  fill-opacity="1.000000" fill-rule="nonzero"/>
            <path d="M17.22 6.95C17.13 6.99 16.94 6.58 17.03 6.54C17.12 6.5 17.31 6.91 17.22 6.95Z" fill="#E34E70"
                  fill-opacity="1.000000" fill-rule="nonzero"/>
            <path d="M16.61 6.53C16.44 6.62 16.06 5.95 16.24 5.85C16.42 5.75 16.79 6.43 16.61 6.53Z" fill="#F7B3C5"
                  fill-opacity="1.000000" fill-rule="nonzero"/>
            <path d="M16.55 6.36C16.47 6.41 16.26 6.04 16.35 5.99C16.43 5.95 16.63 6.31 16.55 6.36Z" fill="#E34E70"
                  fill-opacity="1.000000" fill-rule="nonzero"/>
            <path d="M16.49 5.69C16.34 5.81 15.9 5.25 16.06 5.13C16.21 5.01 16.65 5.57 16.49 5.69Z" fill="#F7B3C5"
                  fill-opacity="1.000000" fill-rule="nonzero"/>
            <path d="M16.41 5.55C16.34 5.6 16.11 5.3 16.18 5.24C16.25 5.19 16.48 5.5 16.41 5.55Z" fill="#E34E70"
                  fill-opacity="1.000000" fill-rule="nonzero"/>
            <path d="M15.76 5.35C15.61 5.48 15.15 4.94 15.3 4.82C15.45 4.69 15.9 5.23 15.76 5.35Z" fill="#F7B3C5"
                  fill-opacity="1.000000" fill-rule="nonzero"/>
            <path d="M15.67 5.21C15.6 5.27 15.36 4.98 15.42 4.92C15.48 4.87 15.74 5.16 15.67 5.21Z" fill="#E34E70"
                  fill-opacity="1.000000" fill-rule="nonzero"/>
            <path d="M15.43 4.64C15.3 4.75 14.92 4.31 15.05 4.2C15.18 4.08 15.56 4.52 15.43 4.64L15.43 4.64Z"
                  fill="#F7B3C5" fill-opacity="1.000000" fill-rule="nonzero"/>
            <path d="M15.36 4.52C15.3 4.57 15.09 4.33 15.15 4.28C15.21 4.24 15.42 4.47 15.36 4.52L15.36 4.52Z"
                  fill="#E34E70" fill-opacity="1.000000" fill-rule="nonzero"/>
            <path d="M14.79 4.49C14.64 4.58 14.34 4.09 14.49 4C14.64 3.91 14.94 4.4 14.79 4.49Z" fill="#F389A4"
                  fill-opacity="1.000000" fill-rule="nonzero"/>
            <path d="M14.75 4.37C14.68 4.41 14.51 4.14 14.58 4.1C14.65 4.06 14.81 4.33 14.75 4.37Z" fill="#E34E70"
                  fill-opacity="1.000000" fill-rule="nonzero"/>
            <path d="M14.73 3.9C14.57 3.95 14.44 3.52 14.61 3.47C14.77 3.42 14.9 3.85 14.73 3.9Z" fill="#F389A4"
                  fill-opacity="1.000000" fill-rule="nonzero"/>
            <path d="M14.72 3.8C14.64 3.82 14.58 3.58 14.65 3.56C14.73 3.53 14.8 3.77 14.72 3.8L14.72 3.8Z"
                  fill="#E34E70" fill-opacity="1.000000" fill-rule="nonzero"/>
            <path d="M14.27 3.42C14.11 3.36 14.26 2.94 14.42 3C14.59 3.06 14.44 3.48 14.27 3.42Z" fill="#F389A4"
                  fill-opacity="1.000000" fill-rule="nonzero"/>
            <path d="M14.33 3.33C14.25 3.31 14.33 3.08 14.4 3.1C14.48 3.13 14.4 3.36 14.33 3.33Z" fill="#E34E70"
                  fill-opacity="1.000000" fill-rule="nonzero"/>
            <path d="M14.69 2.93C14.66 2.76 15.1 2.69 15.13 2.86C15.16 3.04 14.72 3.11 14.69 2.93Z" fill="#F389A4"
                  fill-opacity="1.000000" fill-rule="nonzero"/>
            <path d="M14.79 2.94C14.78 2.86 15.02 2.82 15.03 2.9C15.05 2.98 14.8 3.02 14.79 2.94Z" fill="#E34E70"
                  fill-opacity="1.000000" fill-rule="nonzero"/>
            <path d="M4.45 11.33C4.58 11.16 3.81 10.58 3.68 10.76C3.55 10.93 4.31 11.51 4.45 11.33Z" fill="#F389A4"
                  fill-opacity="1.000000" fill-rule="nonzero"/>
            <path d="M4.26 11.22C4.31 11.14 3.9 10.83 3.84 10.91C3.78 10.99 4.2 11.3 4.26 11.22Z" fill="#E34E70"
                  fill-opacity="1.000000" fill-rule="nonzero"/>
            <path d="M3.99 10.57C4.15 10.42 3.57 9.82 3.41 9.97C3.26 10.12 3.84 10.72 3.99 10.57Z" fill="#F389A4"
                  fill-opacity="1.000000" fill-rule="nonzero"/>
            <path d="M3.84 10.45C3.92 10.38 3.6 10.06 3.53 10.12C3.46 10.19 3.77 10.52 3.84 10.45Z" fill="#E34E70"
                  fill-opacity="1.000000" fill-rule="nonzero"/>
            <path d="M3.17 9.46C3.38 9.4 3.14 8.6 2.93 8.67C2.72 8.73 2.97 9.53 3.17 9.46L3.17 9.46Z" fill="#F7B3C5"
                  fill-opacity="1.000000" fill-rule="nonzero"/>
            <path d="M3.09 9.29C3.19 9.26 3.05 8.82 2.96 8.85C2.86 8.88 3 9.32 3.09 9.29Z" fill="#E34E70"
                  fill-opacity="1.000000" fill-rule="nonzero"/>
            <path d="M5.3 11.3C5.4 11.1 4.56 10.71 4.47 10.91C4.37 11.11 5.21 11.5 5.3 11.3Z" fill="#F389A4"
                  fill-opacity="1.000000" fill-rule="nonzero"/>
            <path d="M5.1 11.24C5.14 11.15 4.69 10.93 4.64 11.02C4.6 11.11 5.06 11.33 5.1 11.24Z" fill="#E34E70"
                  fill-opacity="1.000000" fill-rule="nonzero"/>
            <path d="M3.2 10.18C3.39 10.06 2.93 9.36 2.75 9.48C2.57 9.6 3.02 10.29 3.2 10.18Z" fill="#F7B3C5"
                  fill-opacity="1.000000" fill-rule="nonzero"/>
            <path d="M3.08 10.03C3.16 9.98 2.91 9.6 2.83 9.65C2.75 9.7 2.99 10.09 3.08 10.03Z" fill="#E34E70"
                  fill-opacity="1.000000" fill-rule="nonzero"/>
            <path d="M6.61 12.4C6.52 12.17 5.63 12.51 5.72 12.75C5.82 12.99 6.71 12.64 6.61 12.4Z" fill="#F389A4"
                  fill-opacity="1.000000" fill-rule="nonzero"/>
            <path d="M6.42 12.51C6.38 12.4 5.89 12.59 5.94 12.7C5.98 12.81 6.47 12.62 6.42 12.51Z" fill="#E34E70"
                  fill-opacity="1.000000" fill-rule="nonzero"/>
            <path d="M5.47 12.68C5.41 12.41 4.6 12.59 4.66 12.86C4.72 13.13 5.53 12.95 5.47 12.68Z" fill="#F389A4"
                  fill-opacity="1.000000" fill-rule="nonzero"/>
            <path d="M5.29 12.76C5.27 12.63 4.82 12.73 4.85 12.86C4.88 12.98 5.32 12.88 5.29 12.76Z" fill="#E34E70"
                  fill-opacity="1.000000" fill-rule="nonzero"/>
            <path d="M7.26 11.49C7.06 11.27 6.38 11.89 6.58 12.11C6.77 12.33 7.46 11.71 7.26 11.49Z" fill="#F389A4"
                  fill-opacity="1.000000" fill-rule="nonzero"/>
            <path d="M7.13 11.65C7.04 11.55 6.66 11.89 6.76 11.99C6.85 12.09 7.22 11.76 7.13 11.65Z" fill="#E34E70"
                  fill-opacity="1.000000" fill-rule="nonzero"/>
            <path d="M4.5 12.96C4.49 12.76 3.77 12.77 3.78 12.97C3.79 13.17 4.5 13.16 4.5 12.96Z" fill="#F7B3C5"
                  fill-opacity="1.000000" fill-rule="nonzero"/>
            <path d="M4.33 12.99C4.33 12.9 3.94 12.9 3.94 12.99C3.94 13.09 4.34 13.08 4.33 12.99Z" fill="#E34E70"
                  fill-opacity="1.000000" fill-rule="nonzero"/>
            <path d="M6.97 13.72C6.91 13.45 6.1 13.63 6.16 13.9C6.22 14.17 7.03 13.99 6.97 13.72Z" fill="#F389A4"
                  fill-opacity="1.000000" fill-rule="nonzero"/>
            <path d="M6.79 13.8C6.77 13.67 6.32 13.77 6.35 13.89C6.38 14.02 6.82 13.92 6.79 13.8Z" fill="#E34E70"
                  fill-opacity="1.000000" fill-rule="nonzero"/>
            <path d="M9.26 13.22C9.1 13 8.42 13.47 8.58 13.7C8.74 13.92 9.42 13.45 9.26 13.22Z" fill="#F389A4"
                  fill-opacity="1.000000" fill-rule="nonzero"/>
            <path d="M9.13 13.36C9.05 13.26 8.68 13.52 8.75 13.62C8.82 13.72 9.2 13.46 9.13 13.36Z" fill="#E34E70"
                  fill-opacity="1.000000" fill-rule="nonzero"/>
            <path d="M8.27 13.96C7.99 13.97 8.04 14.8 8.31 14.79C8.59 14.77 8.54 13.94 8.27 13.96Z" fill="#F7B3C5"
                  fill-opacity="1.000000" fill-rule="nonzero"/>
            <path d="M8.31 14.14C8.19 14.15 8.21 14.6 8.34 14.6C8.46 14.59 8.44 14.14 8.31 14.14Z" fill="#E34E70"
                  fill-opacity="1.000000" fill-rule="nonzero"/>
            <path d="M8.74 14.8C8.47 14.85 8.64 15.66 8.91 15.61C9.18 15.56 9.01 14.74 8.74 14.8Z" fill="#F7B3C5"
                  fill-opacity="1.000000" fill-rule="nonzero"/>
            <path d="M8.81 14.97C8.69 15 8.78 15.44 8.9 15.42C9.02 15.39 8.93 14.95 8.81 14.97Z" fill="#E34E70"
                  fill-opacity="1.000000" fill-rule="nonzero"/>
            <path d="M8.47 15.66C8.2 15.72 8.37 16.53 8.64 16.48C8.91 16.42 8.74 15.61 8.47 15.66L8.47 15.66Z"
                  fill="#F7B3C5" fill-opacity="1.000000" fill-rule="nonzero"/>
            <path d="M8.54 15.84C8.42 15.86 8.51 16.31 8.63 16.28C8.76 16.26 8.67 15.81 8.54 15.84Z" fill="#E34E70"
                  fill-opacity="1.000000" fill-rule="nonzero"/>
            <path d="M9.09 16.57C8.82 16.62 8.99 17.43 9.26 17.38C9.53 17.33 9.36 16.51 9.09 16.57L9.09 16.57Z"
                  fill="#F7B3C5" fill-opacity="1.000000" fill-rule="nonzero"/>
            <path d="M9.16 16.74C9.04 16.77 9.13 17.22 9.25 17.19C9.38 17.16 9.28 16.72 9.16 16.74Z" fill="#E34E70"
                  fill-opacity="1.000000" fill-rule="nonzero"/>
            <path d="M8.94 17.52C8.66 17.53 8.69 18.36 8.97 18.35C9.25 18.34 9.21 17.51 8.94 17.52Z" fill="#F7B3C5"
                  fill-opacity="1.000000" fill-rule="nonzero"/>
            <path d="M8.98 17.7C8.85 17.71 8.87 18.16 9 18.16C9.12 18.16 9.11 17.7 8.98 17.7Z" fill="#E34E70"
                  fill-opacity="1.000000" fill-rule="nonzero"/>
            <path d="M9.08 18.69C8.86 18.52 8.42 19.06 8.64 19.24C8.85 19.41 9.29 18.87 9.08 18.69Z" fill="#F7B3C5"
                  fill-opacity="1.000000" fill-rule="nonzero"/>
            <path d="M9 18.84C8.91 18.76 8.66 19.06 8.77 19.14C8.87 19.21 9.1 18.92 9 18.84Z" fill="#E34E70"
                  fill-opacity="1.000000" fill-rule="nonzero"/>
            <path d="M8.35 19.21C8.24 19.01 7.74 19.29 7.85 19.48C7.96 19.68 8.46 19.41 8.35 19.21Z" fill="#F389A4"
                  fill-opacity="1.000000" fill-rule="nonzero"/>
            <path d="M8.26 19.29C8.21 19.2 7.93 19.35 7.98 19.45C8.03 19.54 8.3 19.39 8.26 19.29Z" fill="#E34E70"
                  fill-opacity="1.000000" fill-rule="nonzero"/>
            <path d="M7.71 19.82C7.7 19.61 7.2 19.65 7.22 19.86C7.24 20.07 7.73 20.03 7.71 19.82Z" fill="#F389A4"
                  fill-opacity="1.000000" fill-rule="nonzero"/>
            <path d="M7.61 19.85C7.6 19.76 7.33 19.78 7.33 19.87C7.34 19.97 7.61 19.95 7.61 19.85Z" fill="#E34E70"
                  fill-opacity="1.000000" fill-rule="nonzero"/>
            <path d="M7.02 19.69C7.07 19.51 6.63 19.4 6.58 19.59C6.54 19.77 6.98 19.88 7.02 19.69Z" fill="#F389A4"
                  fill-opacity="1.000000" fill-rule="nonzero"/>
            <path d="M6.91 19.69C6.93 19.61 6.69 19.55 6.67 19.63C6.65 19.72 6.9 19.78 6.91 19.69Z" fill="#E34E70"
                  fill-opacity="1.000000" fill-rule="nonzero"/>
            <path d="M6.36 19.71C6.43 19.53 6.01 19.36 5.94 19.54C5.87 19.71 6.28 19.88 6.36 19.71Z" fill="#F389A4"
                  fill-opacity="1.000000" fill-rule="nonzero"/>
            <path d="M6.25 19.69C6.29 19.61 6.06 19.51 6.02 19.59C5.99 19.67 6.22 19.77 6.25 19.69Z" fill="#E34E70"
                  fill-opacity="1.000000" fill-rule="nonzero"/>
            <path d="M5.98 19.24C6.12 19.11 5.81 18.78 5.67 18.91C5.54 19.04 5.84 19.37 5.98 19.24Z" fill="#F389A4"
                  fill-opacity="1.000000" fill-rule="nonzero"/>
            <path d="M5.9 19.18C5.96 19.12 5.79 18.94 5.73 19C5.66 19.06 5.83 19.24 5.9 19.18Z" fill="#E34E70"
                  fill-opacity="1.000000" fill-rule="nonzero"/>
            <path d="M5.47 18.65C5.65 18.59 5.53 18.16 5.35 18.21C5.16 18.26 5.29 18.7 5.47 18.65Z" fill="#F389A4"
                  fill-opacity="1.000000" fill-rule="nonzero"/>
            <path d="M5.42 18.55C5.5 18.53 5.44 18.29 5.35 18.32C5.27 18.34 5.34 18.58 5.42 18.55Z" fill="#E34E70"
                  fill-opacity="1.000000" fill-rule="nonzero"/>
            <path d="M5.96 14.38C5.94 14.11 5.11 14.18 5.13 14.46C5.16 14.73 5.99 14.66 5.96 14.38Z" fill="#F389A4"
                  fill-opacity="1.000000" fill-rule="nonzero"/>
            <path d="M5.78 14.43C5.76 14.31 5.31 14.35 5.32 14.47C5.34 14.6 5.79 14.56 5.78 14.43Z" fill="#E34E70"
                  fill-opacity="1.000000" fill-rule="nonzero"/>
            <path d="M4.97 14.09C4.96 13.82 4.13 13.84 4.14 14.11C4.14 14.38 4.97 14.37 4.97 14.09Z" fill="#F7B3C5"
                  fill-opacity="1.000000" fill-rule="nonzero"/>
            <path d="M4.78 14.13C4.78 14.01 4.33 14.02 4.33 14.14C4.33 14.26 4.78 14.26 4.78 14.13Z" fill="#E34E70"
                  fill-opacity="1.000000" fill-rule="nonzero"/>
            <path d="M4.03 14.44C3.97 14.18 3.25 14.34 3.31 14.6C3.37 14.87 4.09 14.7 4.03 14.44Z" fill="#F7B3C5"
                  fill-opacity="1.000000" fill-rule="nonzero"/>
            <path d="M3.87 14.51C3.84 14.39 3.45 14.48 3.48 14.6C3.5 14.72 3.9 14.63 3.87 14.51Z" fill="#E34E70"
                  fill-opacity="1.000000" fill-rule="nonzero"/>
            <path d="M3.02 14.46C2.9 14.22 2.3 14.53 2.42 14.77C2.54 15.02 3.14 14.7 3.02 14.46Z" fill="#FACFDA"
                  fill-opacity="1.000000" fill-rule="nonzero"/>
            <path d="M2.9 14.56C2.84 14.45 2.52 14.62 2.57 14.73C2.62 14.83 2.96 14.67 2.9 14.56Z" fill="#E34E70"
                  fill-opacity="1.000000" fill-rule="nonzero"/>
            <path d="M2.39 15.14C2.19 15.05 1.96 15.56 2.16 15.65C2.36 15.74 2.59 15.23 2.39 15.14L2.39 15.14Z"
                  fill="#FACFDA" fill-opacity="1.000000" fill-rule="nonzero"/>
            <path d="M2.36 15.27C2.27 15.23 2.14 15.51 2.23 15.54C2.32 15.58 2.45 15.31 2.36 15.27L2.36 15.27Z"
                  fill="#E34E70" fill-opacity="1.000000" fill-rule="nonzero"/>
            <path d="M1.83 15.75C1.61 15.75 1.61 16.31 1.83 16.31C2.04 16.3 2.04 15.75 1.83 15.75Z" fill="#FACFDA"
                  fill-opacity="1.000000" fill-rule="nonzero"/>
            <path d="M1.86 15.88C1.75 15.88 1.75 16.18 1.86 16.18C1.95 16.18 1.95 15.88 1.86 15.88Z" fill="#E34E70"
                  fill-opacity="1.000000" fill-rule="nonzero"/>
            <path d="M2.04 16.47C1.84 16.51 1.94 17 2.13 16.97C2.33 16.93 2.24 16.44 2.04 16.47Z" fill="#FACFDA"
                  fill-opacity="1.000000" fill-rule="nonzero"/>
            <path d="M2.09 16.58C2 16.6 2.05 16.87 2.14 16.85C2.23 16.84 2.18 16.56 2.09 16.58Z" fill="#E34E70"
                  fill-opacity="1.000000" fill-rule="nonzero"/>
            <path d="M2.02 17.19C1.86 17.28 2.08 17.68 2.24 17.59C2.4 17.49 2.18 17.1 2.02 17.19Z" fill="#FACFDA"
                  fill-opacity="1.000000" fill-rule="nonzero"/>
            <path d="M2.09 17.27C2.01 17.31 2.14 17.53 2.21 17.49C2.28 17.45 2.16 17.23 2.09 17.27Z" fill="#E34E70"
                  fill-opacity="1.000000" fill-rule="nonzero"/>
            <path d="M2.49 17.72C2.38 17.83 2.65 18.11 2.76 18C2.87 17.89 2.6 17.61 2.49 17.72Z" fill="#FACFDA"
                  fill-opacity="1.000000" fill-rule="nonzero"/>
            <path d="M2.56 17.77C2.51 17.82 2.66 17.97 2.71 17.92C2.76 17.87 2.61 17.72 2.56 17.77Z" fill="#E34E70"
                  fill-opacity="1.000000" fill-rule="nonzero"/>
            <path d="M3.54 12.87C3.6 12.6 2.8 12.41 2.73 12.68C2.67 12.94 3.48 13.13 3.54 12.87Z" fill="#F7B3C5"
                  fill-opacity="1.000000" fill-rule="nonzero"/>
            <path d="M3.35 12.86C3.38 12.74 2.94 12.63 2.91 12.75C2.88 12.87 3.32 12.98 3.35 12.86Z" fill="#E34E70"
                  fill-opacity="1.000000" fill-rule="nonzero"/>
            <path d="M2.51 12.94C2.59 12.71 1.8 12.44 1.72 12.67C1.64 12.89 2.43 13.17 2.51 12.94Z" fill="#FACFDA"
                  fill-opacity="1.000000" fill-rule="nonzero"/>
            <path d="M2.32 12.91C2.36 12.8 1.92 12.65 1.89 12.75C1.86 12.86 2.28 13.01 2.32 12.91Z" fill="#E34E70"
                  fill-opacity="1.000000" fill-rule="nonzero"/>
            <path d="M1.8 12.35C1.96 12.17 1.34 11.61 1.18 11.79C1.02 11.97 1.64 12.53 1.8 12.35Z" fill="#FACFDA"
                  fill-opacity="1.000000" fill-rule="nonzero"/>
            <path d="M1.64 12.24C1.71 12.17 1.38 11.86 1.3 11.94C1.23 12.02 1.57 12.32 1.64 12.24Z" fill="#E34E70"
                  fill-opacity="1.000000" fill-rule="nonzero"/>
            <path d="M0.79 11.78C0.99 11.64 0.53 10.95 0.33 11.08C0.13 11.22 0.6 11.91 0.79 11.78Z" fill="#FACFDA"
                  fill-opacity="1.000000" fill-rule="nonzero"/>
            <path d="M0.67 11.64C0.76 11.57 0.51 11.2 0.41 11.26C0.32 11.32 0.58 11.7 0.67 11.64Z" fill="#E34E70"
                  fill-opacity="1.000000" fill-rule="nonzero"/>
            <path d="M0.51 10.79C0.74 10.7 0.44 9.93 0.22 10.01C-0.01 10.09 0.29 10.87 0.51 10.79Z" fill="#FACFDA"
                  fill-opacity="1.000000" fill-rule="nonzero"/>
            <path d="M0.42 10.63C0.52 10.59 0.36 10.16 0.26 10.2C0.16 10.24 0.31 10.66 0.42 10.63Z" fill="#E34E70"
                  fill-opacity="1.000000" fill-rule="nonzero"/>
            <path d="M0.1 9.72C0.27 9.74 0.34 9.12 0.16 9.1C-0.01 9.08 -0.08 9.7 0.1 9.72Z" fill="#FACFDA"
                  fill-opacity="1.000000" fill-rule="nonzero"/>
            <path d="M0.09 9.58C0.17 9.58 0.21 9.25 0.13 9.24C0.05 9.23 0.01 9.57 0.09 9.58Z" fill="#E34E70"
                  fill-opacity="1.000000" fill-rule="nonzero"/>
            <path d="M2.63 8.83C2.84 8.8 2.74 7.97 2.53 8C2.31 8.03 2.41 8.85 2.63 8.83Z" fill="#F7B3C5"
                  fill-opacity="1.000000" fill-rule="nonzero"/>
            <path d="M2.58 8.64C2.68 8.63 2.62 8.18 2.52 8.19C2.43 8.2 2.48 8.65 2.58 8.64Z" fill="#E34E70"
                  fill-opacity="1.000000" fill-rule="nonzero"/>
            <path d="M2.95 8.17C3.17 8.18 3.24 7.35 3.02 7.34C2.8 7.32 2.73 8.15 2.95 8.17Z" fill="#F7B3C5"
                  fill-opacity="1.000000" fill-rule="nonzero"/>
            <path d="M2.94 7.97C3.04 7.98 3.07 7.53 2.98 7.52C2.88 7.51 2.84 7.97 2.94 7.97Z" fill="#E34E70"
                  fill-opacity="1.000000" fill-rule="nonzero"/>
            <path d="M2.72 7.13C2.92 7.22 3.26 6.47 3.06 6.38C2.87 6.29 2.52 7.04 2.72 7.13Z" fill="#F7B3C5"
                  fill-opacity="1.000000" fill-rule="nonzero"/>
            <path d="M2.77 6.95C2.86 6.99 3.05 6.58 2.96 6.54C2.87 6.5 2.68 6.91 2.77 6.95Z" fill="#E34E70"
                  fill-opacity="1.000000" fill-rule="nonzero"/>
            <path d="M3.38 6.53C3.55 6.62 3.93 5.95 3.75 5.85C3.57 5.75 3.2 6.43 3.38 6.53Z" fill="#F7B3C5"
                  fill-opacity="1.000000" fill-rule="nonzero"/>
            <path d="M3.44 6.36C3.52 6.41 3.73 6.04 3.64 5.99C3.56 5.95 3.36 6.31 3.44 6.36Z" fill="#E34E70"
                  fill-opacity="1.000000" fill-rule="nonzero"/>
            <path d="M3.5 5.69C3.65 5.81 4.09 5.25 3.93 5.13C3.78 5.01 3.34 5.57 3.5 5.69Z" fill="#F7B3C5"
                  fill-opacity="1.000000" fill-rule="nonzero"/>
            <path d="M3.58 5.55C3.65 5.6 3.88 5.3 3.81 5.24C3.74 5.19 3.51 5.5 3.58 5.55Z" fill="#E34E70"
                  fill-opacity="1.000000" fill-rule="nonzero"/>
            <path d="M4.23 5.35C4.38 5.48 4.84 4.94 4.69 4.82C4.54 4.69 4.08 5.23 4.23 5.35Z" fill="#F7B3C5"
                  fill-opacity="1.000000" fill-rule="nonzero"/>
            <path d="M4.32 5.21C4.39 5.27 4.63 4.98 4.57 4.92C4.51 4.87 4.25 5.16 4.32 5.21Z" fill="#E34E70"
                  fill-opacity="1.000000" fill-rule="nonzero"/>
            <path d="M4.56 4.64C4.69 4.75 5.07 4.31 4.94 4.2C4.81 4.08 4.43 4.52 4.56 4.64L4.56 4.64Z" fill="#F7B3C5"
                  fill-opacity="1.000000" fill-rule="nonzero"/>
            <path d="M4.63 4.52C4.69 4.57 4.9 4.33 4.84 4.28C4.78 4.24 4.57 4.47 4.63 4.52L4.63 4.52Z" fill="#E34E70"
                  fill-opacity="1.000000" fill-rule="nonzero"/>
            <path d="M5.2 4.49C5.34 4.58 5.65 4.09 5.5 4C5.35 3.91 5.05 4.4 5.2 4.49Z" fill="#F389A4"
                  fill-opacity="1.000000" fill-rule="nonzero"/>
            <path d="M5.25 4.37C5.31 4.41 5.48 4.14 5.41 4.1C5.34 4.06 5.18 4.33 5.25 4.37Z" fill="#E34E70"
                  fill-opacity="1.000000" fill-rule="nonzero"/>
            <path d="M5.26 3.9C5.42 3.95 5.55 3.52 5.38 3.47C5.22 3.42 5.09 3.85 5.26 3.9Z" fill="#F389A4"
                  fill-opacity="1.000000" fill-rule="nonzero"/>
            <path d="M5.27 3.8C5.35 3.82 5.41 3.58 5.34 3.56C5.26 3.53 5.19 3.77 5.27 3.8Z" fill="#E34E70"
                  fill-opacity="1.000000" fill-rule="nonzero"/>
            <path d="M5.72 3.42C5.88 3.36 5.74 2.94 5.57 3C5.4 3.06 5.55 3.48 5.72 3.42Z" fill="#F389A4"
                  fill-opacity="1.000000" fill-rule="nonzero"/>
            <path d="M5.66 3.33C5.74 3.31 5.66 3.08 5.58 3.1C5.51 3.13 5.59 3.36 5.66 3.33Z" fill="#E34E70"
                  fill-opacity="1.000000" fill-rule="nonzero"/>
            <path d="M5.3 2.93C5.33 2.76 4.89 2.69 4.86 2.86C4.83 3.04 5.27 3.11 5.3 2.93Z" fill="#F389A4"
                  fill-opacity="1.000000" fill-rule="nonzero"/>
            <path d="M5.2 2.94C5.21 2.86 4.97 2.82 4.95 2.9C4.94 2.98 5.18 3.02 5.2 2.94Z" fill="#E34E70"
                  fill-opacity="1.000000" fill-rule="nonzero"/>
        </g>
    </g>

    <g id="jsSvg">
        <defs>
            <clipPath id="clip571_348">
                <rect width="20.000000" height="20.000000" fill="white" fill-opacity="0"/>
            </clipPath>
        </defs>
        <rect width="20.000000" height="20.000000" fill="#FFFFFF" fill-opacity="0"/>
        <g clip-path="url(#clip571_348)">
            <path d="M1.25 1.25L18.75 1.25L18.75 18.75L1.25 18.75L1.25 1.25Z" fill="#D9F431" fill-opacity="1.000000"
                  fill-rule="nonzero"/>
            <path d="M13 14.92C13.15 15.22 13.38 15.47 13.67 15.65C13.96 15.83 14.29 15.92 14.63 15.92C15.31 15.92 15.74 15.58 15.74 15.1C15.74 14.54 15.29 14.34 14.54 14.01L14.13 13.84C12.95 13.33 12.16 12.7 12.16 11.36C12.16 10.13 13.1 9.19 14.57 9.19C15.04 9.15 15.52 9.26 15.93 9.49C16.35 9.73 16.69 10.08 16.91 10.5L15.62 11.32C15.54 11.11 15.39 10.93 15.2 10.81C15.01 10.68 14.79 10.62 14.56 10.62C14.47 10.61 14.37 10.62 14.27 10.65C14.18 10.68 14.09 10.73 14.02 10.8C13.94 10.87 13.88 10.95 13.84 11.04C13.8 11.13 13.78 11.23 13.78 11.32C13.78 11.82 14.08 12.02 14.79 12.32L15.2 12.5C16.6 13.1 17.39 13.71 17.39 15.08C17.39 16.56 16.22 17.38 14.66 17.38C14.05 17.41 13.45 17.28 12.91 16.98C12.38 16.68 11.95 16.23 11.67 15.69L13 14.92ZM7.19 15.06C7.45 15.52 7.68 15.9 8.25 15.9C8.79 15.9 9.13 15.69 9.13 14.87L9.13 9.28L10.78 9.28L10.78 14.89C10.78 16.6 9.78 17.37 8.32 17.37C7.8 17.4 7.29 17.27 6.85 17C6.41 16.74 6.06 16.34 5.85 15.87L7.19 15.06Z"
                  fill="#120F1A" fill-opacity="1.000000" fill-rule="nonzero"/>
        </g>
    </g>

    <g id="typescriptSvg">
        <defs>
            <clipPath id="clip571_355">
                <rect width="20.000000" height="20.000000" fill="white" fill-opacity="0"/>
            </clipPath>
        </defs>
        <rect width="20.000000" height="20.000000" fill="#FFFFFF" fill-opacity="0"/>
        <g clip-path="url(#clip571_355)">
            <path d="M2.5 2.5L17.5 2.5L17.5 17.5L2.5 17.5L2.5 2.5ZM11.42 14.88C11.84 15.7 12.68 16.32 14 16.32C15.33 16.32 16.33 15.63 16.33 14.35C16.33 13.18 15.65 12.65 14.45 12.14L14.1 11.99C13.5 11.73 13.24 11.55 13.24 11.14C13.24 10.8 13.5 10.53 13.91 10.53C14.31 10.53 14.58 10.7 14.82 11.14L15.91 10.41C15.45 9.61 14.8 9.3 13.91 9.3C12.65 9.3 11.84 10.1 11.84 11.16C11.84 12.31 12.52 12.85 13.54 13.29L13.89 13.44C14.54 13.72 14.92 13.89 14.92 14.38C14.92 14.78 14.54 15.07 13.96 15.07C13.27 15.07 12.87 14.71 12.57 14.21L11.42 14.88ZM10.83 9.37L6.66 9.37L6.66 10.62L7.91 10.62L7.91 16.66L9.37 16.66L9.37 10.62L10.83 10.62L10.83 9.37Z"
                  fill="#2F74FB" fill-opacity="1.000000" fill-rule="nonzero"/>
        </g>
    </g>

    <g id="githubActionsSvg">
        <defs>
            <clipPath id="clip571_383">
                <rect width="20.000000" height="20.000000" fill="white" fill-opacity="0"/>
            </clipPath>
        </defs>
        <rect width="20.000000" height="20.000000" fill="#FFFFFF" fill-opacity="0"/>
        <g clip-path="url(#clip571_383)">
            <path d="M4.18 0C6.5 0 8.37 1.87 8.37 4.18C8.37 6.45 6.56 8.3 4.3 8.37C4.3 8.56 4.31 8.92 4.42 9.14C4.57 9.44 5.47 10.01 6.36 10.01L6.68 10.01C6.88 8.58 8.11 7.49 9.59 7.49C11.07 7.49 12.29 8.57 12.5 9.99L14.15 9.99C14.36 8.57 15.58 7.49 17.06 7.49C18.68 7.49 20 8.8 20 10.42C20 12.05 18.68 13.36 17.06 13.36C15.58 13.36 14.36 12.27 14.15 10.85L12.5 10.85C12.29 12.27 11.07 13.36 9.59 13.36C8.12 13.36 6.9 12.28 6.69 10.86L6.33 10.87C5.75 10.87 5.14 10.71 4.65 10.38C4.51 10.29 4.38 10.19 4.24 10.1L4.24 10.29C4.24 10.35 4.23 11.28 4.23 12.31L4.23 12.53C4.23 13.2 4.23 13.9 4.25 14.4C4.28 15.52 5.19 16.42 6.19 16.63C6.32 16.65 6.54 16.66 6.68 16.64C6.88 15.22 8.11 14.12 9.59 14.12C11.21 14.12 12.53 15.43 12.53 17.06C12.53 18.68 11.21 20 9.59 20C8.12 20 6.91 18.92 6.69 17.52L6.43 17.52C4.53 17.41 3.34 15.66 3.36 14.24C3.39 12.46 3.37 10.67 3.37 8.88L3.37 8.29C1.44 7.91 0 6.21 0 4.18C0 1.87 1.87 0 4.18 0ZM9.59 14.98C8.44 14.98 7.51 15.91 7.51 17.06C7.51 18.21 8.44 19.14 9.59 19.14C10.74 19.14 11.67 18.21 11.67 17.06C11.67 15.91 10.74 14.98 9.59 14.98L9.59 14.98ZM9.59 8.34C8.44 8.34 7.51 9.28 7.51 10.42C7.51 11.57 8.44 12.5 9.59 12.5C10.74 12.5 11.67 11.57 11.67 10.42C11.67 9.28 10.74 8.34 9.59 8.34ZM17.06 8.34C15.91 8.34 14.98 9.28 14.98 10.42C14.98 11.57 15.91 12.5 17.06 12.5C18.2 12.5 19.14 11.57 19.14 10.42C19.14 9.28 18.2 8.34 17.06 8.34L17.06 8.34ZM18.24 9.55C18.32 9.63 18.36 9.73 18.37 9.84C18.37 9.95 18.33 10.06 18.25 10.14L18.24 10.16L16.97 11.43C16.89 11.51 16.78 11.56 16.67 11.56C16.56 11.56 16.46 11.52 16.37 11.45L16.36 11.43L15.74 10.82C15.7 10.78 15.67 10.73 15.64 10.68C15.62 10.63 15.61 10.57 15.61 10.52C15.61 10.46 15.62 10.41 15.64 10.35C15.66 10.3 15.69 10.25 15.73 10.21C15.81 10.13 15.92 10.09 16.03 10.09C16.14 10.08 16.25 10.12 16.33 10.2L16.34 10.21L16.66 10.52L17.63 9.55C17.71 9.47 17.82 9.42 17.94 9.42C18.05 9.42 18.16 9.47 18.24 9.55L18.24 9.55ZM10.74 9.54C10.82 9.62 10.87 9.73 10.87 9.84C10.87 9.95 10.83 10.05 10.75 10.14L10.74 10.15L9.47 11.43C9.39 11.5 9.29 11.55 9.17 11.55C9.07 11.55 8.96 11.52 8.88 11.44L8.86 11.43L8.24 10.81C8.16 10.74 8.11 10.63 8.11 10.52C8.11 10.41 8.15 10.3 8.23 10.22C8.31 10.13 8.41 10.09 8.52 10.08C8.64 10.08 8.75 10.12 8.83 10.19L8.84 10.2L9.16 10.52L10.13 9.54C10.21 9.46 10.32 9.42 10.44 9.42C10.55 9.42 10.66 9.46 10.74 9.54ZM4.18 0.85C2.34 0.85 0.85 2.34 0.85 4.18C0.85 6.02 2.34 7.51 4.18 7.51C6.02 7.51 7.51 6.02 7.51 4.18C7.51 2.34 6.02 0.85 4.18 0.85ZM3.84 2.19C4.54 2.61 5.23 3.05 5.91 3.5C6.48 3.87 6.48 4.56 5.9 4.94C5.21 5.39 4.5 5.82 3.79 6.24C3.2 6.58 2.55 6.19 2.54 5.51C2.53 5.07 2.54 4.64 2.54 4.2C2.53 3.77 2.53 3.34 2.54 2.92C2.55 2.2 3.22 1.82 3.84 2.19L3.84 2.19ZM3.37 2.89L3.37 3.19L3.37 3.63L3.37 3.92L3.37 4.35C3.37 4.68 3.37 5.01 3.38 5.33C3.38 5.48 3.45 5.48 3.56 5.41C4.15 5.05 4.75 4.68 5.34 4.31C5.44 4.25 5.44 4.19 5.35 4.12C4.71 3.72 4.07 3.32 3.37 2.89Z"
                  fill="#FFFFFF" fill-opacity="1.000000" fill-rule="nonzero"/>
            <path d="M10.4 17.49C10.46 17.49 10.52 17.47 10.57 17.45C10.62 17.43 10.67 17.4 10.71 17.36C10.75 17.32 10.78 17.27 10.8 17.22C10.82 17.17 10.83 17.11 10.83 17.06C10.83 17 10.82 16.94 10.8 16.89C10.78 16.84 10.75 16.79 10.71 16.75C10.67 16.71 10.62 16.68 10.57 16.66C10.52 16.64 10.46 16.63 10.4 16.63C10.29 16.63 10.18 16.67 10.1 16.75C10.02 16.83 9.97 16.94 9.97 17.06C9.97 17.17 10.02 17.28 10.1 17.36C10.18 17.44 10.29 17.49 10.4 17.49ZM8.76 17.49C8.87 17.49 8.98 17.44 9.06 17.36C9.14 17.28 9.19 17.17 9.19 17.06C9.19 16.94 9.14 16.83 9.06 16.75C8.98 16.67 8.87 16.63 8.76 16.63C8.65 16.63 8.54 16.67 8.46 16.75C8.37 16.83 8.33 16.94 8.33 17.06C8.33 17.17 8.37 17.28 8.46 17.36C8.54 17.44 8.65 17.49 8.76 17.49ZM17.06 19.14C15.91 19.14 14.98 18.21 14.98 17.06C14.98 15.91 15.91 14.98 17.06 14.98C18.2 14.98 19.14 15.91 19.14 17.06C19.14 18.21 18.2 19.14 17.06 19.14ZM17.06 14.12C15.58 14.12 14.36 15.21 14.15 16.63L13.67 16.63C13.46 16.63 13.29 16.82 13.29 17.06C13.29 17.29 13.46 17.49 13.67 17.49L14.15 17.49C14.36 18.91 15.58 20 17.06 20C18.68 20 20 18.68 20 17.06C20 15.43 18.68 14.12 17.06 14.12Z"
                  fill="#FFFFFF" fill-opacity="1.000000" fill-rule="nonzero"/>
        </g>
    </g>

    <g id="nginxSvg">

        <defs>
            <clipPath id="clip571_390">
                <rect width="20.000000" height="20.000000" fill="white" fill-opacity="0"/>
            </clipPath>
        </defs>
        <rect width="20.000000" height="20.000000" fill="#FFFFFF" fill-opacity="0"/>
        <g clip-path="url(#clip571_390)">
            <path d="M9.96 1.25L10 1.25C10.21 1.34 10.41 1.45 10.61 1.58L17.4 5.48C17.49 5.53 17.56 5.6 17.6 5.69C17.65 5.77 17.67 5.87 17.66 5.97C17.65 8.71 17.66 11.46 17.65 14.2C17.62 14.33 17.54 14.44 17.43 14.52C15.03 15.9 12.62 17.28 10.21 18.67C10.16 18.71 10.08 18.74 10.01 18.74C9.94 18.75 9.87 18.73 9.8 18.69C7.39 17.31 4.99 15.93 2.58 14.54C2.51 14.5 2.44 14.45 2.4 14.37C2.35 14.3 2.33 14.21 2.33 14.12L2.33 5.9C2.33 5.81 2.35 5.73 2.39 5.65C2.44 5.58 2.5 5.52 2.58 5.48C4.84 4.18 7.09 2.88 9.35 1.58C9.56 1.46 9.75 1.34 9.96 1.25Z"
                  fill="#019639" fill-opacity="1.000000" fill-rule="nonzero"/>
            <path d="M5.47 6.58L5.47 13.37C5.47 13.49 5.49 13.62 5.54 13.73C5.59 13.85 5.65 13.96 5.74 14.05C5.91 14.21 6.13 14.32 6.36 14.34C6.6 14.36 6.83 14.31 7.03 14.18C7.16 14.09 7.27 13.97 7.34 13.83C7.42 13.68 7.46 13.53 7.46 13.37C7.46 11.73 7.45 10.09 7.46 8.46C8.95 10.24 10.45 12.03 11.95 13.81C12.15 14.02 12.41 14.18 12.7 14.26C12.98 14.35 13.28 14.36 13.57 14.3C13.78 14.26 13.96 14.15 14.1 14C14.24 13.85 14.33 13.65 14.35 13.44C14.36 11.13 14.36 8.83 14.35 6.52C14.33 6.27 14.22 6.04 14.04 5.87C13.85 5.71 13.61 5.61 13.37 5.61C13.12 5.61 12.88 5.71 12.7 5.87C12.52 6.04 12.4 6.27 12.38 6.52C12.38 8.18 12.37 9.84 12.38 11.51C10.92 9.78 9.47 8.03 8.01 6.3C7.81 6.05 7.56 5.86 7.27 5.74C6.98 5.63 6.66 5.59 6.35 5.64C6.12 5.67 5.9 5.78 5.74 5.95C5.58 6.12 5.48 6.35 5.47 6.58Z"
                  fill="#FFFFFF" fill-opacity="1.000000" fill-rule="nonzero"/>
        </g>
    </g>

    <g id="doker">
        <defs>
            <clipPath id="clip571_397">
                <rect width="20.000000" height="14.453125" fill="white" fill-opacity="0"/>
            </clipPath>
        </defs>
        <rect width="20.000000" height="14.453125" fill="#FFFFFF" fill-opacity="0"/>
        <g clip-path="url(#clip571_397)">
            <path d="M19.58 5.5C19.13 5.19 18.1 5.07 17.29 5.23C17.2 4.45 16.77 3.76 16.02 3.16L15.58 2.85L15.29 3.3C14.91 3.88 14.72 4.7 14.78 5.48C14.8 5.76 14.89 6.24 15.17 6.67C14.91 6.83 14.37 7.03 13.65 7.03L0.08 7.03L0.05 7.18C-0.08 7.96 -0.08 10.4 1.45 12.28C2.62 13.71 4.34 14.43 6.62 14.43C11.53 14.43 15.17 12.06 16.88 7.79C17.56 7.81 19 7.79 19.73 6.32C19.75 6.28 19.79 6.21 19.92 5.91L20 5.76L19.58 5.5ZM10.93 0L8.87 0L8.87 1.95L10.93 1.95L10.93 0ZM10.93 2.34L8.87 2.34L8.87 4.29L10.93 4.29L10.93 2.34L10.93 2.34ZM8.49 2.34L6.43 2.34L6.43 4.29L8.49 4.29L8.49 2.34L8.49 2.34ZM6.05 2.34L3.99 2.34L3.99 4.29L6.05 4.29L6.05 2.34L6.05 2.34ZM3.61 4.68L1.55 4.68L1.55 6.64L3.61 6.64L3.61 4.68L3.61 4.68ZM6.05 4.68L3.99 4.68L3.99 6.64L6.05 6.64L6.05 4.68L6.05 4.68ZM8.49 4.68L6.43 4.68L6.43 6.64L8.49 6.64L8.49 4.68L8.49 4.68ZM10.93 4.68L8.87 4.68L8.87 6.64L10.93 6.64L10.93 4.68L10.93 4.68ZM13.37 4.68L11.31 4.68L11.31 6.64L13.37 6.64L13.37 4.68L13.37 4.68Z"
                  fill="#2396ED" fill-opacity="1.000000" fill-rule="nonzero"/>
        </g>
    </g>

    <g id="nodeJs">
        <defs>
            <clipPath id="clip571_366">
                <rect width="20.000000" height="20.000000" fill="white" fill-opacity="0"/>
            </clipPath>
        </defs>
        <rect width="20.000000" height="20.000000" fill="#FFFFFF" fill-opacity="0"/>
        <g clip-path="url(#clip571_366)">
            <path d="M10 1.54C9.77 1.54 9.54 1.59 9.34 1.7L3.15 5.29C2.75 5.52 2.5 5.95 2.5 6.42L2.5 13.57C2.5 14.04 2.75 14.47 3.15 14.7L4.77 15.64C5.56 16.02 5.83 16.03 6.2 16.03C7.36 16.03 8.04 15.32 8.04 14.09L8.04 7.03C8.04 6.93 7.95 6.84 7.85 6.84L7.08 6.84C6.97 6.84 6.89 6.93 6.89 7.03L6.89 14.09C6.89 14.64 6.32 15.18 5.41 14.72L3.7 13.74C3.68 13.73 3.65 13.7 3.64 13.67C3.62 13.64 3.61 13.6 3.61 13.57L3.61 6.42C3.61 6.34 3.65 6.28 3.7 6.24L9.9 2.67C9.95 2.64 10.04 2.64 10.09 2.67L16.29 6.24C16.34 6.28 16.38 6.34 16.38 6.42L16.38 13.57C16.38 13.64 16.34 13.7 16.29 13.74L10.09 17.32C10.04 17.35 9.95 17.35 9.9 17.32L8.33 16.37C8.26 16.34 8.2 16.34 8.15 16.36C7.71 16.61 7.63 16.66 7.22 16.79C7.12 16.82 6.96 16.88 7.28 17.05L9.34 18.28C9.54 18.39 9.76 18.45 10 18.45C10.23 18.45 10.45 18.39 10.65 18.28L16.84 14.7C17.25 14.47 17.5 14.04 17.5 13.57L17.5 6.42C17.5 5.95 17.25 5.52 16.84 5.29L10.65 1.7C10.45 1.59 10.23 1.54 10 1.54ZM11.66 6.66C9.9 6.66 8.84 7.4 8.84 8.65C8.84 9.99 9.89 10.39 11.59 10.55C13.61 10.75 13.77 11.05 13.77 11.45C13.77 12.14 13.21 12.44 11.91 12.44C10.26 12.44 9.91 12.03 9.79 11.21C9.78 11.17 9.75 11.13 9.72 11.1C9.69 11.08 9.65 11.06 9.6 11.06L8.8 11.06C8.7 11.06 8.63 11.14 8.63 11.24C8.63 12.28 9.2 13.53 11.91 13.53C13.87 13.53 15 12.75 15 11.4C15 10.06 14.09 9.71 12.19 9.45C10.26 9.2 10.07 9.07 10.07 8.62C10.07 8.24 10.24 7.74 11.66 7.74C12.91 7.74 13.4 8.02 13.59 8.88C13.61 8.96 13.69 9.02 13.77 9.02L14.58 9.02C14.62 9.02 14.67 9 14.7 8.96C14.74 8.93 14.76 8.88 14.75 8.83C14.63 7.34 13.65 6.66 11.66 6.66Z"
                  fill="#68A063" fill-opacity="1.000000" fill-rule="nonzero"/>
        </g>
    </g>

    <g id="prismaSvg">
        <defs>
            <clipPath id="clip571_372">
                <rect width="16.000000" height="19.375000" fill="white" fill-opacity="0"/>
            </clipPath>
        </defs>
        <rect width="16.000000" height="19.375000" fill="#FFFFFF" fill-opacity="0"/>
        <g clip-path="url(#clip571_372)">
            <path d="M15.89 14.71L9.25 0.6C9.16 0.43 9.03 0.28 8.87 0.18C8.71 0.07 8.53 0.01 8.34 0C8.14 -0.02 7.95 0.02 7.78 0.11C7.61 0.2 7.47 0.34 7.37 0.5L0.16 12.17C0.05 12.35 -0.01 12.55 0 12.76C0 12.97 0.06 13.17 0.17 13.34L3.7 18.8C3.83 19.01 4.02 19.16 4.25 19.25C4.48 19.33 4.73 19.34 4.97 19.27L15.19 16.24C15.35 16.2 15.49 16.12 15.61 16.02C15.73 15.91 15.83 15.78 15.9 15.64C15.96 15.49 16 15.33 16 15.17C15.99 15.02 15.96 14.86 15.89 14.71L15.89 14.71ZM14.4 15.32L5.73 17.89C5.46 17.96 5.21 17.73 5.26 17.47L8.36 2.62C8.42 2.35 8.8 2.3 8.92 2.56L14.66 14.75C14.69 14.8 14.7 14.86 14.7 14.92C14.7 14.98 14.69 15.04 14.66 15.09C14.64 15.15 14.6 15.2 14.56 15.24C14.51 15.27 14.46 15.3 14.4 15.32L14.4 15.32L14.4 15.32Z"
                  fill="#FFFFFF" fill-opacity="1.000000" fill-rule="nonzero"/>
        </g>
    </g>


    <!--SLIDER-->

    <g id="nextBlack">
        <defs>
            <clipPath id="clip571_477">
                <rect width="52.000000" height="52.000000" fill="white" fill-opacity="0"/>
            </clipPath>
        </defs>
        <rect width="52.000000" height="52.000000" fill="#FFFFFF" fill-opacity="0"/>
        <g clip-path="url(#clip571_477)">
            <path d="M25.07 0C24.69 0 24.4 0 24.29 0.01C24.03 0.04 23.77 0.06 23.5 0.08C16.12 0.74 9.2 4.73 4.82 10.85C2.4 14.22 0.82 18.11 0.23 22.21C0.02 23.64 0 24.06 0 26C0 27.93 0.02 28.36 0.23 29.79C1.64 39.55 8.59 47.75 18.02 50.79C19.7 51.33 21.48 51.71 23.51 51.93C24.29 52.02 27.7 52.02 28.49 51.93C31.98 51.54 34.94 50.68 37.86 49.19C38.3 48.96 38.39 48.9 38.33 48.85C38.29 48.82 36.38 46.26 34.09 43.17L29.94 37.56L24.73 29.85C22.99 27.27 21.25 24.7 19.48 22.14C19.46 22.14 19.44 25.56 19.43 29.75C19.41 37.07 19.41 37.36 19.32 37.54C19.23 37.74 19.07 37.9 18.87 38C18.71 38.08 18.57 38.1 17.8 38.1L16.92 38.1L16.68 37.95C16.54 37.86 16.42 37.73 16.34 37.58L16.23 37.35L16.25 27.16L16.26 16.96L16.42 16.76C16.52 16.64 16.65 16.54 16.79 16.46C17 16.35 17.09 16.34 17.96 16.34C19 16.34 19.17 16.38 19.44 16.68C21.55 19.82 23.64 22.97 25.72 26.13C29.13 31.31 32.55 36.49 35.97 41.66L40.09 47.9L40.3 47.76C42.28 46.45 44.08 44.87 45.64 43.08C48.92 39.33 51.04 34.71 51.76 29.79C51.97 28.36 52 27.94 52 26C52 24.06 51.97 23.64 51.76 22.21C50.35 12.45 43.4 4.25 33.98 1.21C32.21 0.65 30.4 0.27 28.56 0.08C27.4 0.02 26.23 -0.01 25.07 0L25.07 0ZM33.88 15.63C34.64 15.63 34.77 15.64 34.94 15.73C35.06 15.79 35.16 15.88 35.25 15.98C35.34 16.09 35.41 16.2 35.45 16.33C35.49 16.46 35.5 19.29 35.49 25.66L35.48 34.8L33.86 32.33L32.25 29.86L32.25 23.22C32.25 18.92 32.27 16.5 32.3 16.39C32.33 16.25 32.4 16.13 32.48 16.02C32.57 15.91 32.68 15.82 32.8 15.75C33.01 15.64 33.08 15.63 33.89 15.63L33.88 15.63Z"
                  fill="#272727" fill-opacity="1.000000" fill-rule="nonzero"/>
        </g>
    </g>
    <g id="figmaBoldSvg">
        <defs>
            <clipPath id="clip698_43">
                <rect width="24.000000" height="24.000000" fill="white" fill-opacity="0"/>
            </clipPath>
        </defs>
        <rect width="24.000000" height="24.000000" fill="#FFFFFF" fill-opacity="0"/>
        <g clip-path="url(#clip698_43)">
            <g opacity="0.600000">
                <path d="M11.66 2L8.33 2C7.44 2 6.6 2.35 5.97 2.97C5.35 3.6 5 4.44 5 5.33C5 6.21 5.35 7.06 5.97 7.69C6.6 8.31 7.44 8.66 8.33 8.66L11.66 8.66L11.66 2Z"
                      fill="#B292FF" fill-opacity="1.000000" fill-rule="nonzero"/>
            </g>
            <g opacity="0.400000">
                <path d="M11.66 8.66L8.33 8.66C7.44 8.66 6.6 9.01 5.97 9.64C5.35 10.26 5 11.11 5 12C5 12.88 5.35 13.73 5.97 14.35C6.6 14.98 7.44 15.33 8.33 15.33L11.66 15.33L11.66 8.66Z"
                      fill="#B292FF" fill-opacity="1.000000" fill-rule="nonzero"/>
            </g>
            <path d="M18.33 12C18.33 12.88 17.98 13.73 17.35 14.35C16.73 14.98 15.88 15.33 15 15.33C14.11 15.33 13.26 14.98 12.64 14.35C12.01 13.73 11.66 12.88 11.66 12C11.66 11.11 12.01 10.26 12.64 9.64C13.26 9.01 14.11 8.66 15 8.66C15.88 8.66 16.73 9.01 17.35 9.64C17.98 10.26 18.33 11.11 18.33 12Z"
                  fill="#B292FF" fill-opacity="1.000000" fill-rule="nonzero"/>
            <g opacity="0.200000">
                <path d="M8.33 15.33L11.66 15.33L11.66 18.66C11.66 19.32 11.47 19.97 11.1 20.51C10.73 21.06 10.21 21.49 9.6 21.74C9 21.99 8.33 22.06 7.68 21.93C7.03 21.8 6.44 21.48 5.97 21.02C5.51 20.55 5.19 19.96 5.06 19.31C4.93 18.67 5 18 5.25 17.39C5.5 16.78 5.93 16.26 6.48 15.89C7.02 15.52 7.67 15.33 8.33 15.33Z"
                      fill="#B292FF" fill-opacity="1.000000" fill-rule="nonzero"/>
            </g>
            <g opacity="0.800000">
                <path d="M11.66 2L14.99 2C15.88 2 16.73 2.35 17.35 2.97C17.98 3.6 18.33 4.44 18.33 5.33C18.33 6.21 17.98 7.06 17.35 7.69C16.73 8.31 15.88 8.66 14.99 8.66L11.66 8.66L11.66 2Z"
                      fill="#B292FF" fill-opacity="1.000000" fill-rule="nonzero"/>
            </g>
        </g>
    </g>


</svg>
