<svg width="20.000000" height="20.000000" viewBox="0 0 20 20" fill="none" xmlns="http://www.w3.org/2000/svg" xmlns:xlink="http://www.w3.org/1999/xlink">
	<desc>
			Created with Pixso.
	</desc>
	<defs>
		<clipPath id="clip571_332">
			<rect width="20.000000" height="20.000000" fill="white" fill-opacity="0"/>
		</clipPath>
	</defs>
	<rect width="20.000000" height="20.000000" fill="#FFFFFF" fill-opacity="0"/>
	<g clip-path="url(#clip571_332)">
		<path d="M9.99 4.72L10.35 4.1C10.57 3.72 11.05 3.59 11.44 3.81C11.82 4.03 11.95 4.52 11.73 4.9L8.31 10.82L10.78 10.82C11.58 10.82 12.03 11.76 11.69 12.41L4.44 12.41C4 12.41 3.64 12.06 3.64 11.62C3.64 11.17 4 10.82 4.44 10.82L6.47 10.82L9.07 6.31L8.26 4.9C8.04 4.52 8.17 4.03 8.55 3.81C8.94 3.59 9.42 3.72 9.64 4.1L9.99 4.72ZM6.92 13.23L6.15 14.56C5.93 14.94 5.44 15.07 5.06 14.85C4.68 14.64 4.55 14.15 4.77 13.76L5.34 12.78C5.98 12.58 6.5 12.73 6.92 13.23ZM13.51 10.82L15.59 10.82C16.03 10.82 16.39 11.18 16.39 11.62C16.39 12.06 16.03 12.42 15.59 12.42L14.44 12.42L15.21 13.76C15.43 14.15 15.3 14.63 14.92 14.85C14.54 15.07 14.05 14.94 13.83 14.56C12.52 12.29 11.54 10.59 10.89 9.46C10.22 8.31 10.69 7.15 11.17 6.76C11.69 7.66 12.47 9.01 13.51 10.82ZM10 0.31C4.64 0.31 0.31 4.64 0.31 10C0.31 15.35 4.64 19.68 10 19.68C15.35 19.68 19.68 15.35 19.68 10C19.68 4.64 15.35 0.31 10 0.31ZM18.43 10C18.43 14.63 14.68 18.43 10 18.43C5.36 18.43 1.56 14.68 1.56 10C1.56 5.36 5.31 1.56 10 1.56C14.63 1.56 18.43 5.31 18.43 10Z" fill="#FFFFFF" fill-opacity="1.000000" fill-rule="nonzero"/>
	</g>
</svg>
