<svg width="20.000000" height="20.000000" viewBox="0 0 20 20" fill="none" xmlns="http://www.w3.org/2000/svg" xmlns:xlink="http://www.w3.org/1999/xlink">
	<desc>
			Created with Pixso.
	</desc>
	<defs>
		<clipPath id="clip571_383">
			<rect width="20.000000" height="20.000000" fill="white" fill-opacity="0"/>
		</clipPath>
	</defs>
	<rect width="20.000000" height="20.000000" fill="#FFFFFF" fill-opacity="0"/>
	<g clip-path="url(#clip571_383)">
		<path d="M4.18 0C6.5 0 8.37 1.87 8.37 4.18C8.37 6.45 6.56 8.3 4.3 8.37C4.3 8.56 4.31 8.92 4.42 9.14C4.57 9.44 5.47 10.01 6.36 10.01L6.68 10.01C6.88 8.58 8.11 7.49 9.59 7.49C11.07 7.49 12.29 8.57 12.5 9.99L14.15 9.99C14.36 8.57 15.58 7.49 17.06 7.49C18.68 7.49 20 8.8 20 10.42C20 12.05 18.68 13.36 17.06 13.36C15.58 13.36 14.36 12.27 14.15 10.85L12.5 10.85C12.29 12.27 11.07 13.36 9.59 13.36C8.12 13.36 6.9 12.28 6.69 10.86L6.33 10.87C5.75 10.87 5.14 10.71 4.65 10.38C4.51 10.29 4.38 10.19 4.24 10.1L4.24 10.29C4.24 10.35 4.23 11.28 4.23 12.31L4.23 12.53C4.23 13.2 4.23 13.9 4.25 14.4C4.28 15.52 5.19 16.42 6.19 16.63C6.32 16.65 6.54 16.66 6.68 16.64C6.88 15.22 8.11 14.12 9.59 14.12C11.21 14.12 12.53 15.43 12.53 17.06C12.53 18.68 11.21 20 9.59 20C8.12 20 6.91 18.92 6.69 17.52L6.43 17.52C4.53 17.41 3.34 15.66 3.36 14.24C3.39 12.46 3.37 10.67 3.37 8.88L3.37 8.29C1.44 7.91 0 6.21 0 4.18C0 1.87 1.87 0 4.18 0ZM9.59 14.98C8.44 14.98 7.51 15.91 7.51 17.06C7.51 18.21 8.44 19.14 9.59 19.14C10.74 19.14 11.67 18.21 11.67 17.06C11.67 15.91 10.74 14.98 9.59 14.98L9.59 14.98ZM9.59 8.34C8.44 8.34 7.51 9.28 7.51 10.42C7.51 11.57 8.44 12.5 9.59 12.5C10.74 12.5 11.67 11.57 11.67 10.42C11.67 9.28 10.74 8.34 9.59 8.34ZM17.06 8.34C15.91 8.34 14.98 9.28 14.98 10.42C14.98 11.57 15.91 12.5 17.06 12.5C18.2 12.5 19.14 11.57 19.14 10.42C19.14 9.28 18.2 8.34 17.06 8.34L17.06 8.34ZM18.24 9.55C18.32 9.63 18.36 9.73 18.37 9.84C18.37 9.95 18.33 10.06 18.25 10.14L18.24 10.16L16.97 11.43C16.89 11.51 16.78 11.56 16.67 11.56C16.56 11.56 16.46 11.52 16.37 11.45L16.36 11.43L15.74 10.82C15.7 10.78 15.67 10.73 15.64 10.68C15.62 10.63 15.61 10.57 15.61 10.52C15.61 10.46 15.62 10.41 15.64 10.35C15.66 10.3 15.69 10.25 15.73 10.21C15.81 10.13 15.92 10.09 16.03 10.09C16.14 10.08 16.25 10.12 16.33 10.2L16.34 10.21L16.66 10.52L17.63 9.55C17.71 9.47 17.82 9.42 17.94 9.42C18.05 9.42 18.16 9.47 18.24 9.55L18.24 9.55ZM10.74 9.54C10.82 9.62 10.87 9.73 10.87 9.84C10.87 9.95 10.83 10.05 10.75 10.14L10.74 10.15L9.47 11.43C9.39 11.5 9.29 11.55 9.17 11.55C9.07 11.55 8.96 11.52 8.88 11.44L8.86 11.43L8.24 10.81C8.16 10.74 8.11 10.63 8.11 10.52C8.11 10.41 8.15 10.3 8.23 10.22C8.31 10.13 8.41 10.09 8.52 10.08C8.64 10.08 8.75 10.12 8.83 10.19L8.84 10.2L9.16 10.52L10.13 9.54C10.21 9.46 10.32 9.42 10.44 9.42C10.55 9.42 10.66 9.46 10.74 9.54ZM4.18 0.85C2.34 0.85 0.85 2.34 0.85 4.18C0.85 6.02 2.34 7.51 4.18 7.51C6.02 7.51 7.51 6.02 7.51 4.18C7.51 2.34 6.02 0.85 4.18 0.85ZM3.84 2.19C4.54 2.61 5.23 3.05 5.91 3.5C6.48 3.87 6.48 4.56 5.9 4.94C5.21 5.39 4.5 5.82 3.79 6.24C3.2 6.58 2.55 6.19 2.54 5.51C2.53 5.07 2.54 4.64 2.54 4.2C2.53 3.77 2.53 3.34 2.54 2.92C2.55 2.2 3.22 1.82 3.84 2.19L3.84 2.19ZM3.37 2.89L3.37 3.19L3.37 3.63L3.37 3.92L3.37 4.35C3.37 4.68 3.37 5.01 3.38 5.33C3.38 5.48 3.45 5.48 3.56 5.41C4.15 5.05 4.75 4.68 5.34 4.31C5.44 4.25 5.44 4.19 5.35 4.12C4.71 3.72 4.07 3.32 3.37 2.89Z" fill="#FFFFFF" fill-opacity="1.000000" fill-rule="nonzero"/>
		<path d="M10.4 17.49C10.46 17.49 10.52 17.47 10.57 17.45C10.62 17.43 10.67 17.4 10.71 17.36C10.75 17.32 10.78 17.27 10.8 17.22C10.82 17.17 10.83 17.11 10.83 17.06C10.83 17 10.82 16.94 10.8 16.89C10.78 16.84 10.75 16.79 10.71 16.75C10.67 16.71 10.62 16.68 10.57 16.66C10.52 16.64 10.46 16.63 10.4 16.63C10.29 16.63 10.18 16.67 10.1 16.75C10.02 16.83 9.97 16.94 9.97 17.06C9.97 17.17 10.02 17.28 10.1 17.36C10.18 17.44 10.29 17.49 10.4 17.49ZM8.76 17.49C8.87 17.49 8.98 17.44 9.06 17.36C9.14 17.28 9.19 17.17 9.19 17.06C9.19 16.94 9.14 16.83 9.06 16.75C8.98 16.67 8.87 16.63 8.76 16.63C8.65 16.63 8.54 16.67 8.46 16.75C8.37 16.83 8.33 16.94 8.33 17.06C8.33 17.17 8.37 17.28 8.46 17.36C8.54 17.44 8.65 17.49 8.76 17.49ZM17.06 19.14C15.91 19.14 14.98 18.21 14.98 17.06C14.98 15.91 15.91 14.98 17.06 14.98C18.2 14.98 19.14 15.91 19.14 17.06C19.14 18.21 18.2 19.14 17.06 19.14ZM17.06 14.12C15.58 14.12 14.36 15.21 14.15 16.63L13.67 16.63C13.46 16.63 13.29 16.82 13.29 17.06C13.29 17.29 13.46 17.49 13.67 17.49L14.15 17.49C14.36 18.91 15.58 20 17.06 20C18.68 20 20 18.68 20 17.06C20 15.43 18.68 14.12 17.06 14.12Z" fill="#FFFFFF" fill-opacity="1.000000" fill-rule="nonzero"/>
	</g>
</svg>
