<svg width="15.785156" height="17.000244" viewBox="0 0 15.7852 17.0002" fill="none" xmlns="http://www.w3.org/2000/svg" xmlns:xlink="http://www.w3.org/1999/xlink">
	<desc>
			Created with Pixso.
	</desc>
	<defs/>
	<path d="M0 1.04L0 15.95C0 15.98 0 16.02 0.02 16.04C0.04 16.07 0.07 16.09 0.1 16.1C0.13 16.11 0.16 16.12 0.19 16.11C0.22 16.11 0.25 16.09 0.27 16.07L8.04 8.5L0.27 0.92C0.25 0.9 0.22 0.88 0.19 0.88C0.16 0.87 0.13 0.87 0.1 0.89C0.07 0.9 0.04 0.92 0.02 0.95C0 0.97 0 1.01 0 1.04ZM11.3 5.38L1.56 0.02L1.55 0.02C1.39 -0.08 1.23 0.15 1.36 0.28L9 7.58L11.3 5.38ZM1.36 16.71C1.23 16.84 1.39 17.07 1.55 16.97L1.56 16.97L11.3 11.61L9 9.41L1.36 16.71ZM15.23 7.55L12.51 6.05L9.95 8.5L12.51 10.94L15.23 9.44C15.97 9.04 15.97 7.96 15.23 7.55Z" fill="#FFFFFF" fill-opacity="1.000000" fill-rule="nonzero"/>
</svg>
