<svg width="20.000000" height="20.000000" viewBox="0 0 20 20" fill="none" xmlns="http://www.w3.org/2000/svg" xmlns:xlink="http://www.w3.org/1999/xlink">
	<desc>
			Created with Pixso.
	</desc>
	<defs>
		<clipPath id="clip571_348">
			<rect width="20.000000" height="20.000000" fill="white" fill-opacity="0"/>
		</clipPath>
	</defs>
	<rect width="20.000000" height="20.000000" fill="#FFFFFF" fill-opacity="0"/>
	<g clip-path="url(#clip571_348)">
		<path d="M1.25 1.25L18.75 1.25L18.75 18.75L1.25 18.75L1.25 1.25Z" fill="#D9F431" fill-opacity="1.000000" fill-rule="nonzero"/>
		<path d="M13 14.92C13.15 15.22 13.38 15.47 13.67 15.65C13.96 15.83 14.29 15.92 14.63 15.92C15.31 15.92 15.74 15.58 15.74 15.1C15.74 14.54 15.29 14.34 14.54 14.01L14.13 13.84C12.95 13.33 12.16 12.7 12.16 11.36C12.16 10.13 13.1 9.19 14.57 9.19C15.04 9.15 15.52 9.26 15.93 9.49C16.35 9.73 16.69 10.08 16.91 10.5L15.62 11.32C15.54 11.11 15.39 10.93 15.2 10.81C15.01 10.68 14.79 10.62 14.56 10.62C14.47 10.61 14.37 10.62 14.27 10.65C14.18 10.68 14.09 10.73 14.02 10.8C13.94 10.87 13.88 10.95 13.84 11.04C13.8 11.13 13.78 11.23 13.78 11.32C13.78 11.82 14.08 12.02 14.79 12.32L15.2 12.5C16.6 13.1 17.39 13.71 17.39 15.08C17.39 16.56 16.22 17.38 14.66 17.38C14.05 17.41 13.45 17.28 12.91 16.98C12.38 16.68 11.95 16.23 11.67 15.69L13 14.92ZM7.19 15.06C7.45 15.52 7.68 15.9 8.25 15.9C8.79 15.9 9.13 15.69 9.13 14.87L9.13 9.28L10.78 9.28L10.78 14.89C10.78 16.6 9.78 17.37 8.32 17.37C7.8 17.4 7.29 17.27 6.85 17C6.41 16.74 6.06 16.34 5.85 15.87L7.19 15.06Z" fill="#120F1A" fill-opacity="1.000000" fill-rule="nonzero"/>
	</g>
</svg>
