<svg width="20.000000" height="20.000000" viewBox="0 0 20 20" fill="none" xmlns="http://www.w3.org/2000/svg" xmlns:xlink="http://www.w3.org/1999/xlink">
	<desc>
			Created with Pixso.
	</desc>
	<defs>
		<clipPath id="clip571_77">
			<rect width="20.000000" height="20.000000" fill="white" fill-opacity="0"/>
		</clipPath>
	</defs>
	<rect width="20.000000" height="20.000000" fill="#FFFFFF" fill-opacity="0"/>
	<g clip-path="url(#clip571_77)">
		<path d="M9.64 0C9.49 0 9.38 0 9.34 0C9.24 0.01 9.14 0.02 9.04 0.03C6.2 0.28 3.54 1.82 1.85 4.17C0.92 5.46 0.31 6.96 0.09 8.54C0.01 9.09 0 9.25 0 10C0 10.74 0.01 10.9 0.09 11.45C0.63 15.21 3.3 18.36 6.93 19.53C7.58 19.74 8.26 19.88 9.04 19.97C9.34 20 10.65 20 10.95 19.97C12.3 19.82 13.44 19.49 14.56 18.92C14.73 18.83 14.76 18.81 14.74 18.79C14.72 18.77 13.99 17.79 13.11 16.6L11.51 14.44L9.51 11.48C8.84 10.48 8.17 9.5 7.49 8.51C7.48 8.51 7.47 9.83 7.47 11.44C7.46 14.26 7.46 14.37 7.43 14.43C7.39 14.51 7.33 14.58 7.25 14.61C7.19 14.64 7.14 14.65 6.84 14.65L6.5 14.65L6.41 14.59C6.36 14.56 6.31 14.51 6.28 14.45L6.24 14.36L6.25 10.44L6.25 6.52L6.31 6.44C6.35 6.4 6.4 6.36 6.46 6.33C6.54 6.29 6.57 6.28 6.91 6.28C7.31 6.28 7.37 6.3 7.48 6.41C8.29 7.62 9.09 8.83 9.89 10.05C11.2 12.04 12.52 14.03 13.83 16.02L15.42 18.42L15.5 18.37C16.26 17.86 16.95 17.25 17.55 16.57C18.81 15.12 19.63 13.35 19.91 11.45C19.99 10.9 20 10.74 20 10C20 9.25 19.99 9.09 19.91 8.54C19.36 4.79 16.69 1.63 13.07 0.46C12.39 0.25 11.69 0.1 10.98 0.03C10.54 0 10.09 -0.01 9.64 0L9.64 0ZM13.03 6.01C13.32 6.01 13.37 6.01 13.43 6.05C13.48 6.07 13.52 6.1 13.56 6.14C13.59 6.18 13.62 6.23 13.63 6.28C13.65 6.33 13.65 7.42 13.65 9.87L13.64 13.38L13.02 12.43L12.4 11.48L12.4 8.93C12.4 7.27 12.41 6.35 12.42 6.3C12.43 6.25 12.46 6.2 12.49 6.16C12.52 6.12 12.57 6.08 12.61 6.05C12.69 6.01 12.72 6.01 13.03 6.01L13.03 6.01Z" fill="#FFFFFF" fill-opacity="1.000000" fill-rule="nonzero"/>
	</g>
</svg>
