<svg width="20.000000" height="20.000000" viewBox="0 0 20 20" fill="none" xmlns="http://www.w3.org/2000/svg"
>
    <desc>
        Created with Pixso.
    </desc>
    <defs>
        <clipPath id="clip571_390">
            <rect width="20.000000" height="20.000000" fill="white" fill-opacity="0"/>
        </clipPath>
    </defs>
    <rect width="20.000000" height="20.000000" fill="#FFFFFF" fill-opacity="0"/>
    <g clip-path="url(#clip571_390)">
        <path d="M9.96 1.25L10 1.25C10.21 1.34 10.41 1.45 10.61 1.58L17.4 5.48C17.49 5.53 17.56 5.6 17.6 5.69C17.65 5.77 17.67 5.87 17.66 5.97C17.65 8.71 17.66 11.46 17.65 14.2C17.62 14.33 17.54 14.44 17.43 14.52C15.03 15.9 12.62 17.28 10.21 18.67C10.16 18.71 10.08 18.74 10.01 18.74C9.94 18.75 9.87 18.73 9.8 18.69C7.39 17.31 4.99 15.93 2.58 14.54C2.51 14.5 2.44 14.45 2.4 14.37C2.35 14.3 2.33 14.21 2.33 14.12L2.33 5.9C2.33 5.81 2.35 5.73 2.39 5.65C2.44 5.58 2.5 5.52 2.58 5.48C4.84 4.18 7.09 2.88 9.35 1.58C9.56 1.46 9.75 1.34 9.96 1.25Z"
              fill="#019639" fill-opacity="1.000000" fill-rule="nonzero"/>
        <path d="M5.47 6.58L5.47 13.37C5.47 13.49 5.49 13.62 5.54 13.73C5.59 13.85 5.65 13.96 5.74 14.05C5.91 14.21 6.13 14.32 6.36 14.34C6.6 14.36 6.83 14.31 7.03 14.18C7.16 14.09 7.27 13.97 7.34 13.83C7.42 13.68 7.46 13.53 7.46 13.37C7.46 11.73 7.45 10.09 7.46 8.46C8.95 10.24 10.45 12.03 11.95 13.81C12.15 14.02 12.41 14.18 12.7 14.26C12.98 14.35 13.28 14.36 13.57 14.3C13.78 14.26 13.96 14.15 14.1 14C14.24 13.85 14.33 13.65 14.35 13.44C14.36 11.13 14.36 8.83 14.35 6.52C14.33 6.27 14.22 6.04 14.04 5.87C13.85 5.71 13.61 5.61 13.37 5.61C13.12 5.61 12.88 5.71 12.7 5.87C12.52 6.04 12.4 6.27 12.38 6.52C12.38 8.18 12.37 9.84 12.38 11.51C10.92 9.78 9.47 8.03 8.01 6.3C7.81 6.05 7.56 5.86 7.27 5.74C6.98 5.63 6.66 5.59 6.35 5.64C6.12 5.67 5.9 5.78 5.74 5.95C5.58 6.12 5.48 6.35 5.47 6.58Z"
              fill="#FFFFFF" fill-opacity="1.000000" fill-rule="nonzero"/>
    </g>
</svg>
