<svg width="20.000000" height="20.000000" viewBox="0 0 20 20" fill="none" xmlns="http://www.w3.org/2000/svg" xmlns:xlink="http://www.w3.org/1999/xlink">
	<desc>
			Created with Pixso.
	</desc>
	<defs>
		<clipPath id="clip571_83">
			<rect width="20.000000" height="20.000000" fill="white" fill-opacity="0"/>
		</clipPath>
		<linearGradient x1="1.105097" y1="2.656726" x2="11.327076" y2="16.538990" id="paint_linear_571_85_0" gradientUnits="userSpaceOnUse">
			<stop stop-color="#41D1FF"/>
			<stop offset="1.000000" stop-color="#BD34FE"/>
		</linearGradient>
		<linearGradient x1="9.526091" y1="1.577360" x2="11.375199" y2="14.262043" id="paint_linear_571_86_0" gradientUnits="userSpaceOnUse">
			<stop stop-color="#FFEA83"/>
			<stop offset="0.083000" stop-color="#FFDD35"/>
			<stop offset="1.000000" stop-color="#FFA800"/>
		</linearGradient>
	</defs>
	<rect width="20.000000" height="20.000000" fill="#FFFFFF" fill-opacity="0"/>
	<g clip-path="url(#clip571_83)">
		<path d="M18.67 3.84L10.46 18.52C10.42 18.59 10.36 18.65 10.3 18.69C10.23 18.73 10.15 18.75 10.07 18.75C9.99 18.75 9.91 18.73 9.85 18.69C9.78 18.65 9.72 18.6 9.68 18.53L1.3 3.84C1.26 3.76 1.24 3.68 1.25 3.59C1.25 3.51 1.28 3.43 1.33 3.36C1.38 3.29 1.44 3.24 1.52 3.2C1.6 3.17 1.69 3.16 1.77 3.18L9.99 4.65C10.05 4.66 10.1 4.66 10.15 4.65L18.2 3.18C18.29 3.16 18.37 3.17 18.45 3.2C18.53 3.24 18.6 3.29 18.65 3.36C18.69 3.43 18.72 3.51 18.73 3.59C18.73 3.68 18.71 3.76 18.67 3.84L18.67 3.84Z" fill="url(#paint_linear_571_85_0)" fill-opacity="1.000000" fill-rule="nonzero"/>
		<path d="M13.91 1.25L7.83 2.44C7.78 2.45 7.74 2.47 7.71 2.51C7.67 2.55 7.66 2.6 7.65 2.65L7.28 8.96C7.28 9 7.28 9.03 7.3 9.06C7.31 9.09 7.33 9.12 7.36 9.14C7.38 9.17 7.41 9.18 7.45 9.19C7.48 9.2 7.52 9.2 7.55 9.19L9.24 8.8C9.28 8.79 9.32 8.79 9.35 8.8C9.39 8.81 9.42 8.83 9.45 8.86C9.48 8.89 9.5 8.92 9.51 8.95C9.52 8.99 9.52 9.03 9.51 9.06L9.01 11.53C9 11.56 9 11.6 9.02 11.64C9.03 11.68 9.05 11.71 9.08 11.74C9.11 11.76 9.14 11.78 9.18 11.79C9.22 11.8 9.26 11.8 9.29 11.78L10.34 11.47C10.38 11.46 10.41 11.45 10.45 11.46C10.49 11.47 10.53 11.49 10.55 11.51C10.58 11.54 10.6 11.57 10.62 11.61C10.63 11.65 10.63 11.69 10.62 11.73L9.82 15.59C9.77 15.83 10.09 15.97 10.23 15.76L10.32 15.62L15.27 5.74C15.29 5.7 15.3 5.66 15.29 5.62C15.29 5.57 15.28 5.53 15.25 5.5C15.22 5.47 15.19 5.44 15.15 5.43C15.11 5.41 15.07 5.41 15.03 5.42L13.29 5.75C13.25 5.76 13.21 5.76 13.18 5.75C13.14 5.73 13.11 5.71 13.08 5.68C13.06 5.66 13.04 5.62 13.03 5.58C13.02 5.55 13.02 5.51 13.03 5.47L14.17 1.53C14.18 1.49 14.18 1.45 14.17 1.42C14.16 1.38 14.14 1.35 14.12 1.32C14.09 1.29 14.06 1.27 14.02 1.26C13.99 1.24 13.95 1.24 13.91 1.25L13.91 1.25Z" fill="url(#paint_linear_571_86_0)" fill-opacity="1.000000" fill-rule="nonzero"/>
	</g>
</svg>
