<svg width="20.000000" height="20.000000" viewBox="0 0 20 20" fill="none" xmlns="http://www.w3.org/2000/svg" xmlns:xlink="http://www.w3.org/1999/xlink">
	<desc>
			Created with Pixso.
	</desc>
	<defs>
		<clipPath id="clip571_101">
			<rect width="20.000000" height="20.000000" fill="white" fill-opacity="0"/>
		</clipPath>
	</defs>
	<rect width="20.000000" height="20.000000" fill="#FFFFFF" fill-opacity="0"/>
	<g clip-path="url(#clip571_101)">
		<path d="M16.93 9.86C16.93 9.43 16.75 9.02 16.45 8.71C16.14 8.4 15.73 8.23 15.3 8.23C15.24 8.23 15.18 8.24 15.13 8.24L17.36 1.64L7.86 1.64L10.09 8.24C10.06 8.24 10.02 8.23 9.99 8.23C9.6 8.23 9.23 8.37 8.93 8.62C8.63 8.88 8.44 9.23 8.38 9.61C8.32 10 8.4 10.39 8.6 10.72C8.81 11.05 9.13 11.3 9.5 11.41C9.15 12.01 8.72 12.55 8.22 13.03C7.56 13.65 6.78 14.13 5.93 14.44C5.46 14.22 5.08 13.82 4.89 13.33C4.7 12.84 4.7 12.29 4.89 11.8C4.94 11.69 4.99 11.57 5.04 11.46C5.4 11.37 5.72 11.17 5.95 10.87C6.18 10.58 6.3 10.21 6.29 9.84C6.28 9.47 6.15 9.11 5.91 8.82C5.67 8.54 5.33 8.34 4.97 8.27C4.6 8.2 4.22 8.26 3.89 8.44C3.56 8.61 3.31 8.9 3.16 9.24C3.02 9.58 2.99 9.97 3.1 10.32C3.2 10.68 3.42 11 3.73 11.21C3.21 12.15 2.81 13.16 2.55 14.2C2.33 15.54 2.55 16.95 3.7 17.75C6.39 19.61 9.31 16.6 12.38 15.84C13.5 15.56 14.72 15.61 15.7 15.04C16.06 14.84 16.36 14.56 16.6 14.23C16.83 13.89 16.99 13.51 17.07 13.11C17.13 12.73 17.12 12.33 17.03 11.96C16.94 11.58 16.78 11.22 16.55 10.91C16.79 10.61 16.93 10.25 16.92 9.86L16.93 9.86ZM11.62 9.87L11.62 9.86C11.62 9.58 11.55 9.31 11.41 9.06C11.27 8.82 11.08 8.62 10.83 8.47L12.61 4.87L14.39 8.5C14.17 8.65 13.99 8.85 13.86 9.09C13.73 9.33 13.67 9.59 13.67 9.86L13.67 9.89L11.62 9.87Z" fill="#C63D14" fill-opacity="1.000000" fill-rule="nonzero"/>
		<path d="M17.32 9.86C17.32 9.39 17.16 8.93 16.86 8.57C16.56 8.2 16.14 7.96 15.67 7.87L17.92 1.25L7.3 1.25L9.55 7.88C9.16 7.97 8.8 8.17 8.52 8.47C8.25 8.76 8.06 9.13 8 9.52C7.93 9.92 7.98 10.33 8.15 10.69C8.31 11.06 8.58 11.37 8.93 11.58C8.64 12 8.31 12.39 7.95 12.74C7.37 13.28 6.7 13.71 5.97 14C5.63 13.8 5.37 13.49 5.24 13.11C5.11 12.73 5.12 12.32 5.26 11.95L5.29 11.9L5.33 11.79C5.75 11.64 6.11 11.37 6.35 11C6.6 10.63 6.72 10.2 6.69 9.76C6.67 9.32 6.5 8.9 6.22 8.56C5.93 8.22 5.55 7.99 5.12 7.89C4.69 7.8 4.24 7.84 3.83 8.02C3.43 8.2 3.1 8.51 2.89 8.9C2.68 9.29 2.6 9.73 2.66 10.17C2.73 10.6 2.93 11.01 3.25 11.32C3.18 11.46 3.11 11.61 3.03 11.76C2.63 12.5 2.33 13.3 2.16 14.13C1.87 15.88 2.34 17.28 3.48 18.07C4.09 18.51 4.83 18.75 5.58 18.75C6.91 18.75 8.26 18.08 9.58 17.42C10.5 16.92 11.47 16.52 12.48 16.22C12.84 16.13 13.21 16.08 13.61 16.02C14.41 15.96 15.19 15.74 15.91 15.38C16.31 15.15 16.66 14.83 16.93 14.45C17.2 14.07 17.38 13.63 17.46 13.17C17.59 12.39 17.44 11.59 17.03 10.92C17.22 10.6 17.33 10.23 17.33 9.86L17.32 9.86ZM16.53 9.86C16.53 10.1 16.46 10.34 16.32 10.55C16.19 10.75 15.99 10.91 15.77 11C15.54 11.09 15.3 11.12 15.06 11.07C14.82 11.02 14.6 10.9 14.43 10.73C14.25 10.56 14.14 10.34 14.09 10.1C14.04 9.86 14.07 9.62 14.16 9.39C14.25 9.17 14.41 8.97 14.61 8.84C14.82 8.7 15.05 8.63 15.3 8.63C15.62 8.63 15.94 8.76 16.17 8.99C16.4 9.22 16.53 9.53 16.53 9.86ZM16.81 2.04L14.82 7.89C14.74 7.91 14.66 7.94 14.57 7.97L12.62 3.97L10.65 7.94C10.56 7.92 10.48 7.89 10.39 7.87L8.41 2.04L16.81 2.04ZM9.99 8.63C10.23 8.63 10.47 8.7 10.67 8.84C10.88 8.97 11.04 9.17 11.13 9.39C11.22 9.62 11.25 9.86 11.2 10.1C11.15 10.34 11.03 10.56 10.86 10.73C10.69 10.9 10.47 11.02 10.23 11.07C9.99 11.12 9.75 11.09 9.52 11C9.29 10.91 9.1 10.75 8.97 10.55C8.83 10.34 8.76 10.1 8.76 9.86C8.76 9.53 8.89 9.22 9.12 8.99C9.35 8.76 9.66 8.63 9.99 8.63ZM4.66 8.64C4.91 8.64 5.15 8.71 5.35 8.85C5.55 8.99 5.71 9.18 5.8 9.4C5.9 9.63 5.92 9.88 5.87 10.11C5.82 10.35 5.71 10.57 5.53 10.75C5.36 10.92 5.14 11.03 4.9 11.08C4.66 11.13 4.42 11.1 4.19 11.01C3.97 10.92 3.77 10.76 3.64 10.55C3.5 10.35 3.43 10.11 3.43 9.87C3.43 9.54 3.56 9.23 3.79 9C4.02 8.77 4.34 8.64 4.66 8.64L4.66 8.64ZM16.68 13.04C16.61 13.38 16.48 13.71 16.27 14C16.07 14.28 15.81 14.52 15.51 14.69C14.87 15 14.19 15.18 13.49 15.24C13.1 15.29 12.69 15.35 12.29 15.45C11.23 15.76 10.2 16.18 9.23 16.71C7.25 17.69 5.54 18.54 3.93 17.42C2.75 16.6 2.81 15.09 2.94 14.26C3.11 13.51 3.38 12.78 3.75 12.11L3.91 11.76C4.08 11.82 4.26 11.87 4.44 11.89C4.28 12.45 4.32 13.05 4.56 13.58C4.8 14.11 5.22 14.54 5.75 14.8L5.9 14.87L6.07 14.82C6.97 14.49 7.79 13.98 8.49 13.32C8.95 12.89 9.35 12.4 9.69 11.87C10.12 11.93 10.56 11.86 10.95 11.65C11.33 11.45 11.64 11.12 11.82 10.73C12.01 10.33 12.06 9.89 11.97 9.46C11.89 9.03 11.66 8.64 11.34 8.35L12.61 5.78L13.9 8.4C13.53 8.75 13.31 9.23 13.28 9.74C13.25 10.25 13.41 10.75 13.73 11.14C14.06 11.53 14.51 11.79 15.02 11.86C15.52 11.93 16.03 11.81 16.45 11.53C16.68 11.99 16.76 12.52 16.67 13.04L16.68 13.04Z" fill="#FFFFFF" fill-opacity="1.000000" fill-rule="nonzero"/>
	</g>
</svg>
