<svg width="16.000000" height="19.375000" viewBox="0 0 16 19.375" fill="none" xmlns="http://www.w3.org/2000/svg" xmlns:xlink="http://www.w3.org/1999/xlink">
	<desc>
			Created with Pixso.
	</desc>
	<defs>
		<clipPath id="clip571_372">
			<rect width="16.000000" height="19.375000" fill="white" fill-opacity="0"/>
		</clipPath>
	</defs>
	<rect width="16.000000" height="19.375000" fill="#FFFFFF" fill-opacity="0"/>
	<g clip-path="url(#clip571_372)">
		<path d="M15.89 14.71L9.25 0.6C9.16 0.43 9.03 0.28 8.87 0.18C8.71 0.07 8.53 0.01 8.34 0C8.14 -0.02 7.95 0.02 7.78 0.11C7.61 0.2 7.47 0.34 7.37 0.5L0.16 12.17C0.05 12.35 -0.01 12.55 0 12.76C0 12.97 0.06 13.17 0.17 13.34L3.7 18.8C3.83 19.01 4.02 19.16 4.25 19.25C4.48 19.33 4.73 19.34 4.97 19.27L15.19 16.24C15.35 16.2 15.49 16.12 15.61 16.02C15.73 15.91 15.83 15.78 15.9 15.64C15.96 15.49 16 15.33 16 15.17C15.99 15.02 15.96 14.86 15.89 14.71L15.89 14.71ZM14.4 15.32L5.73 17.89C5.46 17.96 5.21 17.73 5.26 17.47L8.36 2.62C8.42 2.35 8.8 2.3 8.92 2.56L14.66 14.75C14.69 14.8 14.7 14.86 14.7 14.92C14.7 14.98 14.69 15.04 14.66 15.09C14.64 15.15 14.6 15.2 14.56 15.24C14.51 15.27 14.46 15.3 14.4 15.32L14.4 15.32L14.4 15.32Z" fill="#FFFFFF" fill-opacity="1.000000" fill-rule="nonzero"/>
	</g>
</svg>
