<svg width="20.000000" height="14.453125" viewBox="0 0 20 14.4531" fill="none" xmlns="http://www.w3.org/2000/svg" xmlns:xlink="http://www.w3.org/1999/xlink">
	<desc>
			Created with Pixso.
	</desc>
	<defs>
		<clipPath id="clip571_397">
			<rect width="20.000000" height="14.453125" fill="white" fill-opacity="0"/>
		</clipPath>
	</defs>
	<rect width="20.000000" height="14.453125" fill="#FFFFFF" fill-opacity="0"/>
	<g clip-path="url(#clip571_397)">
		<path d="M19.58 5.5C19.13 5.19 18.1 5.07 17.29 5.23C17.2 4.45 16.77 3.76 16.02 3.16L15.58 2.85L15.29 3.3C14.91 3.88 14.72 4.7 14.78 5.48C14.8 5.76 14.89 6.24 15.17 6.67C14.91 6.83 14.37 7.03 13.65 7.03L0.08 7.03L0.05 7.18C-0.08 7.96 -0.08 10.4 1.45 12.28C2.62 13.71 4.34 14.43 6.62 14.43C11.53 14.43 15.17 12.06 16.88 7.79C17.56 7.81 19 7.79 19.73 6.32C19.75 6.28 19.79 6.21 19.92 5.91L20 5.76L19.58 5.5ZM10.93 0L8.87 0L8.87 1.95L10.93 1.95L10.93 0ZM10.93 2.34L8.87 2.34L8.87 4.29L10.93 4.29L10.93 2.34L10.93 2.34ZM8.49 2.34L6.43 2.34L6.43 4.29L8.49 4.29L8.49 2.34L8.49 2.34ZM6.05 2.34L3.99 2.34L3.99 4.29L6.05 4.29L6.05 2.34L6.05 2.34ZM3.61 4.68L1.55 4.68L1.55 6.64L3.61 6.64L3.61 4.68L3.61 4.68ZM6.05 4.68L3.99 4.68L3.99 6.64L6.05 6.64L6.05 4.68L6.05 4.68ZM8.49 4.68L6.43 4.68L6.43 6.64L8.49 6.64L8.49 4.68L8.49 4.68ZM10.93 4.68L8.87 4.68L8.87 6.64L10.93 6.64L10.93 4.68L10.93 4.68ZM13.37 4.68L11.31 4.68L11.31 6.64L13.37 6.64L13.37 4.68L13.37 4.68Z" fill="#2396ED" fill-opacity="1.000000" fill-rule="nonzero"/>
	</g>
</svg>
