<svg width="24.000000" height="24.000000" viewBox="0 0 24 24" fill="none" xmlns="http://www.w3.org/2000/svg" xmlns:xlink="http://www.w3.org/1999/xlink">
	<desc>
			Created with Pixso.
	</desc>
	<defs>
		<clipPath id="clip570_471">
			<rect width="24.000000" height="24.000000" fill="white" fill-opacity="0"/>
		</clipPath>
	</defs>
	<rect width="24.000000" height="24.000000" fill="#FFFFFF" fill-opacity="0"/>
	<g clip-path="url(#clip570_471)">
		<path d="M4 20C3.45 20 2.97 19.8 2.58 19.41C2.19 19.02 2 18.54 2 18L2 6C2 5.45 2.19 4.97 2.58 4.58C2.97 4.19 3.45 4 4 4L20 4C20.54 4 21.02 4.19 21.41 4.58C21.8 4.97 22 5.45 22 6L22 18C22 18.54 21.8 19.02 21.41 19.41C21.02 19.8 20.54 20 20 20L4 20ZM12 12.82C12.08 12.82 12.17 12.81 12.26 12.78C12.35 12.76 12.44 12.72 12.52 12.67L19.59 8.25C19.73 8.16 19.83 8.06 19.9 7.93C19.96 7.81 20 7.67 20 7.52C20 7.19 19.85 6.94 19.57 6.77C19.29 6.6 19 6.61 18.7 6.79L12 11L5.29 6.79C5 6.61 4.7 6.61 4.42 6.78C4.14 6.96 4 7.2 4 7.52C4 7.69 4.03 7.83 4.09 7.96C4.16 8.08 4.26 8.18 4.4 8.25L11.47 12.67C11.55 12.72 11.64 12.76 11.73 12.78C11.82 12.81 11.91 12.82 12 12.82Z" fill="#B292FF" fill-opacity="1.000000" fill-rule="nonzero"/>
	</g>
</svg>
