<svg width="20.000000" height="20.000000" viewBox="0 0 20 20" fill="none" xmlns="http://www.w3.org/2000/svg" xmlns:xlink="http://www.w3.org/1999/xlink">
	<desc>
			Created with Pixso.
	</desc>
	<defs>
		<clipPath id="clip571_366">
			<rect width="20.000000" height="20.000000" fill="white" fill-opacity="0"/>
		</clipPath>
	</defs>
	<rect width="20.000000" height="20.000000" fill="#FFFFFF" fill-opacity="0"/>
	<g clip-path="url(#clip571_366)">
		<path d="M10 1.54C9.77 1.54 9.54 1.59 9.34 1.7L3.15 5.29C2.75 5.52 2.5 5.95 2.5 6.42L2.5 13.57C2.5 14.04 2.75 14.47 3.15 14.7L4.77 15.64C5.56 16.02 5.83 16.03 6.2 16.03C7.36 16.03 8.04 15.32 8.04 14.09L8.04 7.03C8.04 6.93 7.95 6.84 7.85 6.84L7.08 6.84C6.97 6.84 6.89 6.93 6.89 7.03L6.89 14.09C6.89 14.64 6.32 15.18 5.41 14.72L3.7 13.74C3.68 13.73 3.65 13.7 3.64 13.67C3.62 13.64 3.61 13.6 3.61 13.57L3.61 6.42C3.61 6.34 3.65 6.28 3.7 6.24L9.9 2.67C9.95 2.64 10.04 2.64 10.09 2.67L16.29 6.24C16.34 6.28 16.38 6.34 16.38 6.42L16.38 13.57C16.38 13.64 16.34 13.7 16.29 13.74L10.09 17.32C10.04 17.35 9.95 17.35 9.9 17.32L8.33 16.37C8.26 16.34 8.2 16.34 8.15 16.36C7.71 16.61 7.63 16.66 7.22 16.79C7.12 16.82 6.96 16.88 7.28 17.05L9.34 18.28C9.54 18.39 9.76 18.45 10 18.45C10.23 18.45 10.45 18.39 10.65 18.28L16.84 14.7C17.25 14.47 17.5 14.04 17.5 13.57L17.5 6.42C17.5 5.95 17.25 5.52 16.84 5.29L10.65 1.7C10.45 1.59 10.23 1.54 10 1.54ZM11.66 6.66C9.9 6.66 8.84 7.4 8.84 8.65C8.84 9.99 9.89 10.39 11.59 10.55C13.61 10.75 13.77 11.05 13.77 11.45C13.77 12.14 13.21 12.44 11.91 12.44C10.26 12.44 9.91 12.03 9.79 11.21C9.78 11.17 9.75 11.13 9.72 11.1C9.69 11.08 9.65 11.06 9.6 11.06L8.8 11.06C8.7 11.06 8.63 11.14 8.63 11.24C8.63 12.28 9.2 13.53 11.91 13.53C13.87 13.53 15 12.75 15 11.4C15 10.06 14.09 9.71 12.19 9.45C10.26 9.2 10.07 9.07 10.07 8.62C10.07 8.24 10.24 7.74 11.66 7.74C12.91 7.74 13.4 8.02 13.59 8.88C13.61 8.96 13.69 9.02 13.77 9.02L14.58 9.02C14.62 9.02 14.67 9 14.7 8.96C14.74 8.93 14.76 8.88 14.75 8.83C14.63 7.34 13.65 6.66 11.66 6.66Z" fill="#68A063" fill-opacity="1.000000" fill-rule="nonzero"/>
	</g>
</svg>
