<svg width="19.428711" height="20.000000" viewBox="0 0 19.4287 20" fill="none" xmlns="http://www.w3.org/2000/svg" xmlns:xlink="http://www.w3.org/1999/xlink">
	<desc>
			Created with Pixso.
	</desc>
	<defs>
		<clipPath id="clip571_71">
			<rect width="19.428572" height="20.000000" fill="white" fill-opacity="0"/>
		</clipPath>
	</defs>
	<rect width="19.428572" height="20.000000" fill="#FFFFFF" fill-opacity="0"/>
	<g clip-path="url(#clip571_71)">
		<path d="M9.71 8.42C10.54 8.42 11.22 9.12 11.22 10C11.22 10.83 10.54 11.54 9.71 11.54C8.87 11.54 8.2 10.83 8.2 10C8.2 9.12 8.87 8.42 9.71 8.42ZM5.96 16.66C6.47 16.98 7.59 16.5 8.87 15.25C8.45 14.75 8.04 14.22 7.65 13.66C7 13.6 6.35 13.5 5.71 13.36C5.3 15.15 5.45 16.37 5.96 16.66ZM6.54 11.88L6.3 11.45C6.21 11.7 6.12 11.94 6.07 12.17C6.29 12.22 6.53 12.26 6.78 12.3L6.54 11.88ZM11.83 11.25L12.49 10L11.83 8.75C11.59 8.3 11.33 7.91 11.09 7.52C10.66 7.5 10.2 7.5 9.71 7.5C9.22 7.5 8.76 7.5 8.33 7.52C8.09 7.91 7.83 8.3 7.59 8.75L6.93 10L7.59 11.25C7.83 11.69 8.09 12.08 8.33 12.47C8.76 12.5 9.22 12.5 9.71 12.5C10.2 12.5 10.66 12.5 11.09 12.47C11.33 12.08 11.59 11.69 11.83 11.25ZM9.71 5.65C9.56 5.83 9.39 6.02 9.23 6.25L10.19 6.25C10.03 6.02 9.86 5.83 9.71 5.65ZM9.71 14.35C9.86 14.16 10.03 13.97 10.19 13.75L9.23 13.75C9.39 13.97 9.56 14.16 9.71 14.35ZM13.45 3.33C12.95 3.01 11.83 3.5 10.54 4.75C10.96 5.24 11.38 5.77 11.77 6.33C12.43 6.4 13.08 6.5 13.71 6.63C14.12 4.85 13.97 3.62 13.45 3.33ZM12.88 8.11L13.12 8.54C13.21 8.3 13.29 8.05 13.35 7.82C13.13 7.77 12.89 7.73 12.64 7.69L12.88 8.11ZM14.06 2.24C15.25 2.94 15.38 4.78 14.87 6.93C16.93 7.55 18.41 8.59 18.41 10C18.41 11.4 16.93 12.44 14.87 13.06C15.38 15.21 15.25 17.05 14.06 17.75C12.87 18.45 11.26 17.65 9.71 16.13C8.16 17.65 6.54 18.45 5.35 17.75C4.17 17.05 4.04 15.21 4.54 13.06C2.49 12.44 1.01 11.4 1.01 10C1.01 8.59 2.49 7.55 4.54 6.93C4.04 4.78 4.17 2.94 5.35 2.24C6.54 1.54 8.16 2.34 9.71 3.86C11.26 2.34 12.87 1.54 14.06 2.24ZM13.82 10C14.1 10.62 14.34 11.25 14.54 11.88C16.24 11.35 17.2 10.6 17.2 10C17.2 9.39 16.24 8.64 14.54 8.11C14.34 8.75 14.1 9.37 13.82 10ZM5.6 10C5.32 9.37 5.08 8.75 4.88 8.11C3.18 8.64 2.22 9.39 2.22 10C2.22 10.6 3.18 11.35 4.88 11.88C5.08 11.25 5.32 10.62 5.6 10ZM12.88 11.88L12.64 12.3C12.89 12.26 13.13 12.22 13.35 12.17C13.29 11.94 13.21 11.7 13.12 11.45L12.88 11.88ZM10.54 15.25C11.83 16.5 12.95 16.98 13.45 16.66C13.97 16.37 14.12 15.15 13.71 13.36C13.08 13.5 12.43 13.6 11.77 13.66C11.38 14.22 10.96 14.75 10.54 15.25ZM6.54 8.11L6.78 7.69C6.53 7.73 6.29 7.77 6.07 7.82C6.12 8.05 6.21 8.3 6.3 8.54L6.54 8.11ZM8.87 4.75C7.59 3.5 6.47 3.01 5.96 3.33C5.45 3.62 5.3 4.85 5.71 6.63C6.35 6.49 7 6.39 7.65 6.33C8.04 5.77 8.45 5.24 8.87 4.75Z" fill="#B292FF" fill-opacity="1.000000" fill-rule="nonzero"/>
	</g>
</svg>
