<svg width="24.000000" height="24.000000" viewBox="0 0 24 24" fill="none" xmlns="http://www.w3.org/2000/svg" xmlns:xlink="http://www.w3.org/1999/xlink">
	<desc>
			Created with Pixso.
	</desc>
	<defs>
		<clipPath id="clip570_469">
			<rect width="24.000000" height="24.000000" fill="white" fill-opacity="0"/>
		</clipPath>
	</defs>
	<rect width="24.000000" height="24.000000" fill="#FFFFFF" fill-opacity="0"/>
	<g clip-path="url(#clip570_469)">
		<path d="M19 3C19.53 3 20.03 3.21 20.41 3.58C20.78 3.96 21 4.46 21 5L21 19C21 19.53 20.78 20.03 20.41 20.41C20.03 20.78 19.53 21 19 21L5 21C4.46 21 3.96 20.78 3.58 20.41C3.21 20.03 3 19.53 3 19L3 5C3 4.46 3.21 3.96 3.58 3.58C3.96 3.21 4.46 3 5 3L19 3ZM18.5 18.5L18.5 13.2C18.5 12.33 18.15 11.5 17.54 10.89C16.93 10.28 16.1 9.93 15.24 9.93C14.38 9.93 13.4 10.46 12.91 11.24L12.91 10.13L10.12 10.13L10.12 18.5L12.91 18.5L12.91 13.57C12.91 12.8 13.54 12.17 14.3 12.17C14.68 12.17 15.03 12.31 15.29 12.58C15.56 12.84 15.71 13.19 15.71 13.57L15.71 18.5L18.5 18.5ZM6.87 8.56C7.32 8.56 7.75 8.38 8.06 8.06C8.38 7.75 8.55 7.32 8.55 6.88C8.55 5.95 7.8 5.19 6.87 5.19C6.43 5.19 6 5.36 5.68 5.68C5.36 6 5.19 6.43 5.19 6.88C5.19 7.81 5.95 8.56 6.87 8.56ZM8.26 18.5L8.26 10.13L5.5 10.13L5.5 18.5L8.26 18.5Z" fill="#B292FF" fill-opacity="1.000000" fill-rule="nonzero"/>
	</g>
</svg>
