<svg width="20.000000" height="20.000000" viewBox="0 0 20 20" fill="none" xmlns="http://www.w3.org/2000/svg" xmlns:xlink="http://www.w3.org/1999/xlink">
	<desc>
			Created with Pixso.
	</desc>
	<defs>
		<clipPath id="clip571_355">
			<rect width="20.000000" height="20.000000" fill="white" fill-opacity="0"/>
		</clipPath>
	</defs>
	<rect width="20.000000" height="20.000000" fill="#FFFFFF" fill-opacity="0"/>
	<g clip-path="url(#clip571_355)">
		<path d="M2.5 2.5L17.5 2.5L17.5 17.5L2.5 17.5L2.5 2.5ZM11.42 14.88C11.84 15.7 12.68 16.32 14 16.32C15.33 16.32 16.33 15.63 16.33 14.35C16.33 13.18 15.65 12.65 14.45 12.14L14.1 11.99C13.5 11.73 13.24 11.55 13.24 11.14C13.24 10.8 13.5 10.53 13.91 10.53C14.31 10.53 14.58 10.7 14.82 11.14L15.91 10.41C15.45 9.61 14.8 9.3 13.91 9.3C12.65 9.3 11.84 10.1 11.84 11.16C11.84 12.31 12.52 12.85 13.54 13.29L13.89 13.44C14.54 13.72 14.92 13.89 14.92 14.38C14.92 14.78 14.54 15.07 13.96 15.07C13.27 15.07 12.87 14.71 12.57 14.21L11.42 14.88ZM10.83 9.37L6.66 9.37L6.66 10.62L7.91 10.62L7.91 16.66L9.37 16.66L9.37 10.62L10.83 10.62L10.83 9.37Z" fill="#2F74FB" fill-opacity="1.000000" fill-rule="nonzero"/>
	</g>
</svg>
