<svg width="52.000000" height="52.000122" viewBox="0 0 52 52.0001" fill="none" xmlns="http://www.w3.org/2000/svg" xmlns:xlink="http://www.w3.org/1999/xlink">
	<desc>
			Created with Pixso.
	</desc>
	<defs>
		<clipPath id="clip571_477">
			<rect width="52.000000" height="52.000000" fill="white" fill-opacity="0"/>
		</clipPath>
	</defs>
	<rect width="52.000000" height="52.000000" fill="#FFFFFF" fill-opacity="0"/>
	<g clip-path="url(#clip571_477)">
		<path d="M25.07 0C24.69 0 24.4 0 24.29 0.01C24.03 0.04 23.77 0.06 23.5 0.08C16.12 0.74 9.2 4.73 4.82 10.85C2.4 14.22 0.82 18.11 0.23 22.21C0.02 23.64 0 24.06 0 26C0 27.93 0.02 28.36 0.23 29.79C1.64 39.55 8.59 47.75 18.02 50.79C19.7 51.33 21.48 51.71 23.51 51.93C24.29 52.02 27.7 52.02 28.49 51.93C31.98 51.54 34.94 50.68 37.86 49.19C38.3 48.96 38.39 48.9 38.33 48.85C38.29 48.82 36.38 46.26 34.09 43.17L29.94 37.56L24.73 29.85C22.99 27.27 21.25 24.7 19.48 22.14C19.46 22.14 19.44 25.56 19.43 29.75C19.41 37.07 19.41 37.36 19.32 37.54C19.23 37.74 19.07 37.9 18.87 38C18.71 38.08 18.57 38.1 17.8 38.1L16.92 38.1L16.68 37.95C16.54 37.86 16.42 37.73 16.34 37.58L16.23 37.35L16.25 27.16L16.26 16.96L16.42 16.76C16.52 16.64 16.65 16.54 16.79 16.46C17 16.35 17.09 16.34 17.96 16.34C19 16.34 19.17 16.38 19.44 16.68C21.55 19.82 23.64 22.97 25.72 26.13C29.13 31.31 32.55 36.49 35.97 41.66L40.09 47.9L40.3 47.76C42.28 46.45 44.08 44.87 45.64 43.08C48.92 39.33 51.04 34.71 51.76 29.79C51.97 28.36 52 27.94 52 26C52 24.06 51.97 23.64 51.76 22.21C50.35 12.45 43.4 4.25 33.98 1.21C32.21 0.65 30.4 0.27 28.56 0.08C27.4 0.02 26.23 -0.01 25.07 0L25.07 0ZM33.88 15.63C34.64 15.63 34.77 15.64 34.94 15.73C35.06 15.79 35.16 15.88 35.25 15.98C35.34 16.09 35.41 16.2 35.45 16.33C35.49 16.46 35.5 19.29 35.49 25.66L35.48 34.8L33.86 32.33L32.25 29.86L32.25 23.22C32.25 18.92 32.27 16.5 32.3 16.39C32.33 16.25 32.4 16.13 32.48 16.02C32.57 15.91 32.68 15.82 32.8 15.75C33.01 15.64 33.08 15.63 33.89 15.63L33.88 15.63Z" fill="#272727" fill-opacity="1.000000" fill-rule="nonzero"/>
	</g>
</svg>
