<svg width="24.000000" height="24.000000" viewBox="0 0 24 24" fill="none" xmlns="http://www.w3.org/2000/svg" xmlns:xlink="http://www.w3.org/1999/xlink">
	<desc>
			Created with Pixso.
	</desc>
	<defs>
		<clipPath id="clip698_43">
			<rect width="24.000000" height="24.000000" fill="white" fill-opacity="0"/>
		</clipPath>
	</defs>
	<rect width="24.000000" height="24.000000" fill="#FFFFFF" fill-opacity="0"/>
	<g clip-path="url(#clip698_43)">
		<g opacity="0.600000">
			<path d="M11.66 2L8.33 2C7.44 2 6.6 2.35 5.97 2.97C5.35 3.6 5 4.44 5 5.33C5 6.21 5.35 7.06 5.97 7.69C6.6 8.31 7.44 8.66 8.33 8.66L11.66 8.66L11.66 2Z" fill="#B292FF" fill-opacity="1.000000" fill-rule="nonzero"/>
		</g>
		<g opacity="0.400000">
			<path d="M11.66 8.66L8.33 8.66C7.44 8.66 6.6 9.01 5.97 9.64C5.35 10.26 5 11.11 5 12C5 12.88 5.35 13.73 5.97 14.35C6.6 14.98 7.44 15.33 8.33 15.33L11.66 15.33L11.66 8.66Z" fill="#B292FF" fill-opacity="1.000000" fill-rule="nonzero"/>
		</g>
		<path d="M18.33 12C18.33 12.88 17.98 13.73 17.35 14.35C16.73 14.98 15.88 15.33 15 15.33C14.11 15.33 13.26 14.98 12.64 14.35C12.01 13.73 11.66 12.88 11.66 12C11.66 11.11 12.01 10.26 12.64 9.64C13.26 9.01 14.11 8.66 15 8.66C15.88 8.66 16.73 9.01 17.35 9.64C17.98 10.26 18.33 11.11 18.33 12Z" fill="#B292FF" fill-opacity="1.000000" fill-rule="nonzero"/>
		<g opacity="0.200000">
			<path d="M8.33 15.33L11.66 15.33L11.66 18.66C11.66 19.32 11.47 19.97 11.1 20.51C10.73 21.06 10.21 21.49 9.6 21.74C9 21.99 8.33 22.06 7.68 21.93C7.03 21.8 6.44 21.48 5.97 21.02C5.51 20.55 5.19 19.96 5.06 19.31C4.93 18.67 5 18 5.25 17.39C5.5 16.78 5.93 16.26 6.48 15.89C7.02 15.52 7.67 15.33 8.33 15.33Z" fill="#B292FF" fill-opacity="1.000000" fill-rule="nonzero"/>
		</g>
		<g opacity="0.800000">
			<path d="M11.66 2L14.99 2C15.88 2 16.73 2.35 17.35 2.97C17.98 3.6 18.33 4.44 18.33 5.33C18.33 6.21 17.98 7.06 17.35 7.69C16.73 8.31 15.88 8.66 14.99 8.66L11.66 8.66L11.66 2Z" fill="#B292FF" fill-opacity="1.000000" fill-rule="nonzero"/>
		</g>
	</g>
</svg>
